<svg width="346" height="275" viewBox="0 0 346 275" fill="none" xmlns="http://www.w3.org/2000/svg">
<path d="M43.08 85.68H30.12L0 -1.28746e-05H12.24L36.72 74.28H36.96L61.68 -1.28746e-05H73.56L43.08 85.68ZM78.3169 54.72C78.3169 58.48 78.7969 61.84 79.7569 64.8C80.7969 67.68 82.1969 70.12 83.9569 72.12C85.7169 74.04 87.7569 75.52 90.0769 76.56C92.4769 77.6 94.9969 78.12 97.6369 78.12C100.277 78.12 102.757 77.6 105.077 76.56C107.477 75.52 109.557 74.04 111.317 72.12C113.077 70.12 114.437 67.68 115.397 64.8C116.437 61.84 116.957 58.48 116.957 54.72C116.957 50.96 116.437 47.64 115.397 44.76C114.437 41.8 113.077 39.32 111.317 37.32C109.557 35.32 107.477 33.8 105.077 32.76C102.757 31.72 100.277 31.2 97.6369 31.2C94.9969 31.2 92.4769 31.72 90.0769 32.76C87.7569 33.8 85.7169 35.32 83.9569 37.32C82.1969 39.32 80.7969 41.8 79.7569 44.76C78.7969 47.64 78.3169 50.96 78.3169 54.72ZM67.5169 54.72C67.5169 50.16 68.1569 45.92 69.4369 42C70.7169 38 72.6369 34.56 75.1969 31.68C77.7569 28.72 80.9169 26.4 84.6769 24.72C88.4369 23.04 92.7569 22.2 97.6369 22.2C102.597 22.2 106.917 23.04 110.597 24.72C114.357 26.4 117.517 28.72 120.077 31.68C122.637 34.56 124.557 38 125.837 42C127.117 45.92 127.757 50.16 127.757 54.72C127.757 59.28 127.117 63.52 125.837 67.44C124.557 71.36 122.637 74.8 120.077 77.76C117.517 80.64 114.357 82.92 110.597 84.6C106.917 86.2 102.597 87 97.6369 87C92.7569 87 88.4369 86.2 84.6769 84.6C80.9169 82.92 77.7569 80.64 75.1969 77.76C72.6369 74.8 70.7169 71.36 69.4369 67.44C68.1569 63.52 67.5169 59.28 67.5169 54.72ZM146.983 12.48H136.783V-1.28746e-05H146.983V12.48ZM136.783 23.64H146.983V85.68H136.783V23.64ZM201.305 43.56C200.505 39.64 198.825 36.6 196.265 34.44C193.705 32.28 190.265 31.2 185.945 31.2C182.265 31.2 179.185 31.88 176.705 33.24C174.225 34.6 172.225 36.4 170.705 38.64C169.265 40.88 168.225 43.48 167.585 46.44C166.945 49.32 166.625 52.32 166.625 55.44C166.625 58.32 166.945 61.12 167.585 63.84C168.305 66.56 169.385 69 170.825 71.16C172.265 73.24 174.145 74.92 176.465 76.2C178.785 77.48 181.545 78.12 184.745 78.12C189.785 78.12 193.705 76.8 196.505 74.16C199.385 71.52 201.145 67.8 201.785 63H212.225C211.105 70.68 208.225 76.6 203.585 80.76C199.025 84.92 192.785 87 184.865 87C180.145 87 175.945 86.24 172.265 84.72C168.665 83.2 165.625 81.04 163.145 78.24C160.745 75.44 158.905 72.12 157.625 68.28C156.425 64.36 155.825 60.08 155.825 55.44C155.825 50.8 156.425 46.48 157.625 42.48C158.825 38.4 160.625 34.88 163.025 31.92C165.505 28.88 168.585 26.52 172.265 24.84C175.945 23.08 180.225 22.2 185.105 22.2C188.625 22.2 191.905 22.64 194.945 23.52C198.065 24.32 200.785 25.6 203.105 27.36C205.505 29.12 207.465 31.36 208.985 34.08C210.505 36.72 211.465 39.88 211.865 43.56H201.305ZM263.118 48.72C262.958 46.32 262.398 44.04 261.438 41.88C260.558 39.72 259.318 37.88 257.718 36.36C256.198 34.76 254.358 33.52 252.198 32.64C250.118 31.68 247.798 31.2 245.238 31.2C242.598 31.2 240.198 31.68 238.038 32.64C235.958 33.52 234.158 34.76 232.638 36.36C231.118 37.96 229.918 39.84 229.038 42C228.158 44.08 227.638 46.32 227.478 48.72H263.118ZM272.958 66C271.598 72.96 268.598 78.2 263.958 81.72C259.318 85.24 253.478 87 246.438 87C241.478 87 237.158 86.2 233.478 84.6C229.878 83 226.838 80.76 224.358 77.88C221.878 75 219.998 71.56 218.718 67.56C217.518 63.56 216.838 59.2 216.678 54.48C216.678 49.76 217.398 45.44 218.838 41.52C220.278 37.6 222.278 34.2 224.838 31.32C227.478 28.44 230.558 26.2 234.078 24.6C237.678 23 241.598 22.2 245.838 22.2C251.358 22.2 255.918 23.36 259.518 25.68C263.198 27.92 266.118 30.8 268.278 34.32C270.518 37.84 272.038 41.68 272.838 45.84C273.718 50 274.078 53.96 273.918 57.72H227.478C227.398 60.44 227.718 63.04 228.438 65.52C229.158 67.92 230.318 70.08 231.918 72C233.518 73.84 235.558 75.32 238.038 76.44C240.518 77.56 243.438 78.12 246.798 78.12C251.118 78.12 254.638 77.12 257.358 75.12C260.158 73.12 261.998 70.08 262.878 66H272.958ZM287.131 66.12C287.211 68.36 287.731 70.28 288.691 71.88C289.651 73.4 290.891 74.64 292.411 75.6C294.011 76.48 295.771 77.12 297.691 77.52C299.691 77.92 301.731 78.12 303.811 78.12C305.411 78.12 307.091 78 308.851 77.76C310.611 77.52 312.211 77.08 313.651 76.44C315.171 75.8 316.411 74.88 317.371 73.68C318.331 72.4 318.811 70.8 318.811 68.88C318.811 66.24 317.811 64.24 315.811 62.88C313.811 61.52 311.291 60.44 308.251 59.64C305.291 58.76 302.051 58 298.531 57.36C295.011 56.64 291.731 55.68 288.691 54.48C285.731 53.2 283.251 51.44 281.251 49.2C279.251 46.96 278.251 43.84 278.251 39.84C278.251 36.72 278.931 34.04 280.291 31.8C281.731 29.56 283.531 27.76 285.691 26.4C287.931 24.96 290.411 23.92 293.131 23.28C295.931 22.56 298.691 22.2 301.411 22.2C304.931 22.2 308.171 22.52 311.131 23.16C314.091 23.72 316.691 24.76 318.931 26.28C321.251 27.72 323.091 29.72 324.451 32.28C325.811 34.76 326.611 37.88 326.851 41.64H316.651C316.491 39.64 315.971 38 315.091 36.72C314.211 35.36 313.091 34.28 311.731 33.48C310.371 32.68 308.851 32.12 307.171 31.8C305.571 31.4 303.931 31.2 302.251 31.2C300.731 31.2 299.171 31.32 297.571 31.56C296.051 31.8 294.651 32.24 293.371 32.88C292.091 33.44 291.051 34.24 290.251 35.28C289.451 36.24 289.051 37.52 289.051 39.12C289.051 40.88 289.651 42.36 290.851 43.56C292.131 44.68 293.731 45.64 295.651 46.44C297.571 47.16 299.731 47.8 302.131 48.36C304.531 48.84 306.931 49.36 309.331 49.92C311.891 50.48 314.371 51.16 316.771 51.96C319.251 52.76 321.411 53.84 323.251 55.2C325.171 56.48 326.691 58.12 327.811 60.12C329.011 62.12 329.611 64.6 329.611 67.56C329.611 71.32 328.811 74.44 327.211 76.92C325.691 79.4 323.651 81.4 321.091 82.92C318.611 84.44 315.771 85.48 312.571 86.04C309.451 86.68 306.331 87 303.211 87C299.771 87 296.491 86.64 293.371 85.92C290.251 85.2 287.491 84.04 285.091 82.44C282.691 80.76 280.771 78.6 279.331 75.96C277.891 73.24 277.091 69.96 276.931 66.12H287.131ZM74.7169 148.72C74.7169 152.48 75.1969 155.84 76.1569 158.8C77.1969 161.68 78.5969 164.12 80.3569 166.12C82.1169 168.04 84.1569 169.52 86.4769 170.56C88.8769 171.6 91.3969 172.12 94.0369 172.12C96.6769 172.12 99.1569 171.6 101.477 170.56C103.877 169.52 105.957 168.04 107.717 166.12C109.477 164.12 110.837 161.68 111.797 158.8C112.837 155.84 113.357 152.48 113.357 148.72C113.357 144.96 112.837 141.64 111.797 138.76C110.837 135.8 109.477 133.32 107.717 131.32C105.957 129.32 103.877 127.8 101.477 126.76C99.1569 125.72 96.6769 125.2 94.0369 125.2C91.3969 125.2 88.8769 125.72 86.4769 126.76C84.1569 127.8 82.1169 129.32 80.3569 131.32C78.5969 133.32 77.1969 135.8 76.1569 138.76C75.1969 141.64 74.7169 144.96 74.7169 148.72ZM63.9169 148.72C63.9169 144.16 64.5569 139.92 65.8369 136C67.1169 132 69.0369 128.56 71.5969 125.68C74.1569 122.72 77.3169 120.4 81.0769 118.72C84.8369 117.04 89.1569 116.2 94.0369 116.2C98.9969 116.2 103.317 117.04 106.997 118.72C110.757 120.4 113.917 122.72 116.477 125.68C119.037 128.56 120.957 132 122.237 136C123.517 139.92 124.157 144.16 124.157 148.72C124.157 153.28 123.517 157.52 122.237 161.44C120.957 165.36 119.037 168.8 116.477 171.76C113.917 174.64 110.757 176.92 106.997 178.6C103.317 180.2 98.9969 181 94.0369 181C89.1569 181 84.8369 180.2 81.0769 178.6C77.3169 176.92 74.1569 174.64 71.5969 171.76C69.0369 168.8 67.1169 165.36 65.8369 161.44C64.5569 157.52 63.9169 153.28 63.9169 148.72ZM136.783 126.64H126.343V117.64H136.783V108.4C136.783 103.36 138.223 99.56 141.103 97C144.063 94.36 148.343 93.04 153.943 93.04C154.903 93.04 155.983 93.12 157.183 93.28C158.463 93.44 159.583 93.68 160.543 94V102.88C159.663 102.56 158.703 102.36 157.663 102.28C156.623 102.12 155.663 102.04 154.783 102.04C152.303 102.04 150.383 102.52 149.023 103.48C147.663 104.44 146.983 106.28 146.983 109V117.64H158.983V126.64H146.983V179.68H136.783V126.64ZM208.449 117.64H220.809V126.64H208.449V165.16C208.449 166.36 208.529 167.32 208.689 168.04C208.929 168.76 209.329 169.32 209.889 169.72C210.449 170.12 211.209 170.4 212.169 170.56C213.209 170.64 214.529 170.68 216.129 170.68H220.809V179.68H213.009C210.369 179.68 208.089 179.52 206.169 179.2C204.329 178.8 202.809 178.12 201.609 177.16C200.489 176.2 199.649 174.84 199.089 173.08C198.529 171.32 198.249 169 198.249 166.12V126.64H187.689V117.64H198.249V99.04H208.449V117.64ZM228.541 94H238.741V126.76H238.981C239.781 124.84 240.901 123.24 242.341 121.96C243.781 120.6 245.381 119.52 247.141 118.72C248.981 117.84 250.861 117.2 252.781 116.8C254.781 116.4 256.701 116.2 258.541 116.2C262.621 116.2 266.021 116.76 268.741 117.88C271.461 119 273.661 120.56 275.341 122.56C277.021 124.56 278.181 126.96 278.821 129.76C279.541 132.48 279.901 135.52 279.901 138.88V179.68H269.701V137.68C269.701 133.84 268.581 130.8 266.341 128.56C264.101 126.32 261.021 125.2 257.101 125.2C253.981 125.2 251.261 125.68 248.941 126.64C246.701 127.6 244.821 128.96 243.301 130.72C241.781 132.48 240.621 134.56 239.821 136.96C239.101 139.28 238.741 141.84 238.741 144.64V179.68H228.541V94ZM334.701 142.72C334.541 140.32 333.981 138.04 333.021 135.88C332.141 133.72 330.901 131.88 329.301 130.36C327.781 128.76 325.941 127.52 323.781 126.64C321.701 125.68 319.381 125.2 316.821 125.2C314.181 125.2 311.781 125.68 309.621 126.64C307.541 127.52 305.741 128.76 304.221 130.36C302.701 131.96 301.501 133.84 300.621 136C299.741 138.08 299.221 140.32 299.061 142.72H334.701ZM344.541 160C343.181 166.96 340.181 172.2 335.541 175.72C330.901 179.24 325.061 181 318.021 181C313.061 181 308.741 180.2 305.061 178.6C301.461 177 298.421 174.76 295.941 171.88C293.461 169 291.581 165.56 290.301 161.56C289.101 157.56 288.421 153.2 288.261 148.48C288.261 143.76 288.981 139.44 290.421 135.52C291.861 131.6 293.861 128.2 296.421 125.32C299.061 122.44 302.141 120.2 305.661 118.6C309.261 117 313.181 116.2 317.421 116.2C322.941 116.2 327.501 117.36 331.101 119.68C334.781 121.92 337.701 124.8 339.861 128.32C342.101 131.84 343.621 135.68 344.421 139.84C345.301 144 345.661 147.96 345.501 151.72H299.061C298.981 154.44 299.301 157.04 300.021 159.52C300.741 161.92 301.901 164.08 303.501 166C305.101 167.84 307.141 169.32 309.621 170.44C312.101 171.56 315.021 172.12 318.381 172.12C322.701 172.12 326.221 171.12 328.941 169.12C331.741 167.12 333.581 164.08 334.461 160H344.541ZM86.76 273.68H74.88L55.32 201.68H55.08L35.28 273.68H23.4L1.44 188H13.08L29.88 259.28H30.12L49.32 188H61.68L80.64 259.28H80.88L98.28 188H109.68L86.76 273.68ZM115.817 242.72C115.817 246.48 116.297 249.84 117.257 252.8C118.297 255.68 119.697 258.12 121.457 260.12C123.217 262.04 125.257 263.52 127.577 264.56C129.977 265.6 132.497 266.12 135.137 266.12C137.777 266.12 140.257 265.6 142.577 264.56C144.977 263.52 147.057 262.04 148.817 260.12C150.577 258.12 151.937 255.68 152.897 252.8C153.937 249.84 154.457 246.48 154.457 242.72C154.457 238.96 153.937 235.64 152.897 232.76C151.937 229.8 150.577 227.32 148.817 225.32C147.057 223.32 144.977 221.8 142.577 220.76C140.257 219.72 137.777 219.2 135.137 219.2C132.497 219.2 129.977 219.72 127.577 220.76C125.257 221.8 123.217 223.32 121.457 225.32C119.697 227.32 118.297 229.8 117.257 232.76C116.297 235.64 115.817 238.96 115.817 242.72ZM105.017 242.72C105.017 238.16 105.657 233.92 106.937 230C108.217 226 110.137 222.56 112.697 219.68C115.257 216.72 118.417 214.4 122.177 212.72C125.937 211.04 130.257 210.2 135.137 210.2C140.097 210.2 144.417 211.04 148.097 212.72C151.857 214.4 155.017 216.72 157.577 219.68C160.137 222.56 162.057 226 163.337 230C164.617 233.92 165.257 238.16 165.257 242.72C165.257 247.28 164.617 251.52 163.337 255.44C162.057 259.36 160.137 262.8 157.577 265.76C155.017 268.64 151.857 270.92 148.097 272.6C144.417 274.2 140.097 275 135.137 275C130.257 275 125.937 274.2 122.177 272.6C118.417 270.92 115.257 268.64 112.697 265.76C110.137 262.8 108.217 259.36 106.937 255.44C105.657 251.52 105.017 247.28 105.017 242.72ZM173.323 211.64H182.923V224.72H183.163C185.643 219.68 188.683 215.96 192.283 213.56C195.883 211.16 200.443 210.04 205.963 210.2V221C201.883 221 198.403 221.56 195.523 222.68C192.643 223.8 190.323 225.44 188.563 227.6C186.803 229.76 185.523 232.4 184.723 235.52C183.923 238.56 183.523 242.08 183.523 246.08V273.68H173.323V211.64ZM210.644 188H220.844V273.68H210.644V188ZM240.486 243.2C240.486 246.08 240.846 248.92 241.566 251.72C242.366 254.44 243.526 256.88 245.046 259.04C246.646 261.2 248.646 262.92 251.046 264.2C253.526 265.48 256.406 266.12 259.686 266.12C263.126 266.12 266.046 265.44 268.446 264.08C270.846 262.72 272.806 260.96 274.326 258.8C275.846 256.56 276.926 254.04 277.566 251.24C278.286 248.44 278.646 245.6 278.646 242.72C278.646 239.68 278.286 236.76 277.566 233.96C276.846 231.08 275.686 228.56 274.086 226.4C272.566 224.24 270.566 222.52 268.086 221.24C265.606 219.88 262.606 219.2 259.086 219.2C255.646 219.2 252.726 219.88 250.326 221.24C247.926 222.6 246.006 224.4 244.566 226.64C243.126 228.88 242.086 231.44 241.446 234.32C240.806 237.2 240.486 240.16 240.486 243.2ZM288.486 273.68H278.286V265.28H278.046C276.366 268.72 273.726 271.2 270.126 272.72C266.526 274.24 262.566 275 258.246 275C253.446 275 249.246 274.12 245.646 272.36C242.126 270.6 239.166 268.24 236.766 265.28C234.446 262.32 232.686 258.88 231.486 254.96C230.286 251.04 229.686 246.88 229.686 242.48C229.686 238.08 230.246 233.92 231.366 230C232.566 226.08 234.326 222.68 236.646 219.8C239.046 216.84 242.006 214.52 245.526 212.84C249.126 211.08 253.286 210.2 258.006 210.2C259.606 210.2 261.326 210.36 263.166 210.68C265.006 211 266.846 211.56 268.686 212.36C270.526 213.08 272.246 214.08 273.846 215.36C275.526 216.56 276.926 218.08 278.046 219.92H278.286V188H288.486V273.68Z" fill="url(#paint0_linear_2077_1349)"/>
<path d="M43.08 85.68H30.12L0 -1.28746e-05H12.24L36.72 74.28H36.96L61.68 -1.28746e-05H73.56L43.08 85.68ZM78.3169 54.72C78.3169 58.48 78.7969 61.84 79.7569 64.8C80.7969 67.68 82.1969 70.12 83.9569 72.12C85.7169 74.04 87.7569 75.52 90.0769 76.56C92.4769 77.6 94.9969 78.12 97.6369 78.12C100.277 78.12 102.757 77.6 105.077 76.56C107.477 75.52 109.557 74.04 111.317 72.12C113.077 70.12 114.437 67.68 115.397 64.8C116.437 61.84 116.957 58.48 116.957 54.72C116.957 50.96 116.437 47.64 115.397 44.76C114.437 41.8 113.077 39.32 111.317 37.32C109.557 35.32 107.477 33.8 105.077 32.76C102.757 31.72 100.277 31.2 97.6369 31.2C94.9969 31.2 92.4769 31.72 90.0769 32.76C87.7569 33.8 85.7169 35.32 83.9569 37.32C82.1969 39.32 80.7969 41.8 79.7569 44.76C78.7969 47.64 78.3169 50.96 78.3169 54.72ZM67.5169 54.72C67.5169 50.16 68.1569 45.92 69.4369 42C70.7169 38 72.6369 34.56 75.1969 31.68C77.7569 28.72 80.9169 26.4 84.6769 24.72C88.4369 23.04 92.7569 22.2 97.6369 22.2C102.597 22.2 106.917 23.04 110.597 24.72C114.357 26.4 117.517 28.72 120.077 31.68C122.637 34.56 124.557 38 125.837 42C127.117 45.92 127.757 50.16 127.757 54.72C127.757 59.28 127.117 63.52 125.837 67.44C124.557 71.36 122.637 74.8 120.077 77.76C117.517 80.64 114.357 82.92 110.597 84.6C106.917 86.2 102.597 87 97.6369 87C92.7569 87 88.4369 86.2 84.6769 84.6C80.9169 82.92 77.7569 80.64 75.1969 77.76C72.6369 74.8 70.7169 71.36 69.4369 67.44C68.1569 63.52 67.5169 59.28 67.5169 54.72ZM146.983 12.48H136.783V-1.28746e-05H146.983V12.48ZM136.783 23.64H146.983V85.68H136.783V23.64ZM201.305 43.56C200.505 39.64 198.825 36.6 196.265 34.44C193.705 32.28 190.265 31.2 185.945 31.2C182.265 31.2 179.185 31.88 176.705 33.24C174.225 34.6 172.225 36.4 170.705 38.64C169.265 40.88 168.225 43.48 167.585 46.44C166.945 49.32 166.625 52.32 166.625 55.44C166.625 58.32 166.945 61.12 167.585 63.84C168.305 66.56 169.385 69 170.825 71.16C172.265 73.24 174.145 74.92 176.465 76.2C178.785 77.48 181.545 78.12 184.745 78.12C189.785 78.12 193.705 76.8 196.505 74.16C199.385 71.52 201.145 67.8 201.785 63H212.225C211.105 70.68 208.225 76.6 203.585 80.76C199.025 84.92 192.785 87 184.865 87C180.145 87 175.945 86.24 172.265 84.72C168.665 83.2 165.625 81.04 163.145 78.24C160.745 75.44 158.905 72.12 157.625 68.28C156.425 64.36 155.825 60.08 155.825 55.44C155.825 50.8 156.425 46.48 157.625 42.48C158.825 38.4 160.625 34.88 163.025 31.92C165.505 28.88 168.585 26.52 172.265 24.84C175.945 23.08 180.225 22.2 185.105 22.2C188.625 22.2 191.905 22.64 194.945 23.52C198.065 24.32 200.785 25.6 203.105 27.36C205.505 29.12 207.465 31.36 208.985 34.08C210.505 36.72 211.465 39.88 211.865 43.56H201.305ZM263.118 48.72C262.958 46.32 262.398 44.04 261.438 41.88C260.558 39.72 259.318 37.88 257.718 36.36C256.198 34.76 254.358 33.52 252.198 32.64C250.118 31.68 247.798 31.2 245.238 31.2C242.598 31.2 240.198 31.68 238.038 32.64C235.958 33.52 234.158 34.76 232.638 36.36C231.118 37.96 229.918 39.84 229.038 42C228.158 44.08 227.638 46.32 227.478 48.72H263.118ZM272.958 66C271.598 72.96 268.598 78.2 263.958 81.72C259.318 85.24 253.478 87 246.438 87C241.478 87 237.158 86.2 233.478 84.6C229.878 83 226.838 80.76 224.358 77.88C221.878 75 219.998 71.56 218.718 67.56C217.518 63.56 216.838 59.2 216.678 54.48C216.678 49.76 217.398 45.44 218.838 41.52C220.278 37.6 222.278 34.2 224.838 31.32C227.478 28.44 230.558 26.2 234.078 24.6C237.678 23 241.598 22.2 245.838 22.2C251.358 22.2 255.918 23.36 259.518 25.68C263.198 27.92 266.118 30.8 268.278 34.32C270.518 37.84 272.038 41.68 272.838 45.84C273.718 50 274.078 53.96 273.918 57.72H227.478C227.398 60.44 227.718 63.04 228.438 65.52C229.158 67.92 230.318 70.08 231.918 72C233.518 73.84 235.558 75.32 238.038 76.44C240.518 77.56 243.438 78.12 246.798 78.12C251.118 78.12 254.638 77.12 257.358 75.12C260.158 73.12 261.998 70.08 262.878 66H272.958ZM287.131 66.12C287.211 68.36 287.731 70.28 288.691 71.88C289.651 73.4 290.891 74.64 292.411 75.6C294.011 76.48 295.771 77.12 297.691 77.52C299.691 77.92 301.731 78.12 303.811 78.12C305.411 78.12 307.091 78 308.851 77.76C310.611 77.52 312.211 77.08 313.651 76.44C315.171 75.8 316.411 74.88 317.371 73.68C318.331 72.4 318.811 70.8 318.811 68.88C318.811 66.24 317.811 64.24 315.811 62.88C313.811 61.52 311.291 60.44 308.251 59.64C305.291 58.76 302.051 58 298.531 57.36C295.011 56.64 291.731 55.68 288.691 54.48C285.731 53.2 283.251 51.44 281.251 49.2C279.251 46.96 278.251 43.84 278.251 39.84C278.251 36.72 278.931 34.04 280.291 31.8C281.731 29.56 283.531 27.76 285.691 26.4C287.931 24.96 290.411 23.92 293.131 23.28C295.931 22.56 298.691 22.2 301.411 22.2C304.931 22.2 308.171 22.52 311.131 23.16C314.091 23.72 316.691 24.76 318.931 26.28C321.251 27.72 323.091 29.72 324.451 32.28C325.811 34.76 326.611 37.88 326.851 41.64H316.651C316.491 39.64 315.971 38 315.091 36.72C314.211 35.36 313.091 34.28 311.731 33.48C310.371 32.68 308.851 32.12 307.171 31.8C305.571 31.4 303.931 31.2 302.251 31.2C300.731 31.2 299.171 31.32 297.571 31.56C296.051 31.8 294.651 32.24 293.371 32.88C292.091 33.44 291.051 34.24 290.251 35.28C289.451 36.24 289.051 37.52 289.051 39.12C289.051 40.88 289.651 42.36 290.851 43.56C292.131 44.68 293.731 45.64 295.651 46.44C297.571 47.16 299.731 47.8 302.131 48.36C304.531 48.84 306.931 49.36 309.331 49.92C311.891 50.48 314.371 51.16 316.771 51.96C319.251 52.76 321.411 53.84 323.251 55.2C325.171 56.48 326.691 58.12 327.811 60.12C329.011 62.12 329.611 64.6 329.611 67.56C329.611 71.32 328.811 74.44 327.211 76.92C325.691 79.4 323.651 81.4 321.091 82.92C318.611 84.44 315.771 85.48 312.571 86.04C309.451 86.68 306.331 87 303.211 87C299.771 87 296.491 86.64 293.371 85.92C290.251 85.2 287.491 84.04 285.091 82.44C282.691 80.76 280.771 78.6 279.331 75.96C277.891 73.24 277.091 69.96 276.931 66.12H287.131ZM74.7169 148.72C74.7169 152.48 75.1969 155.84 76.1569 158.8C77.1969 161.68 78.5969 164.12 80.3569 166.12C82.1169 168.04 84.1569 169.52 86.4769 170.56C88.8769 171.6 91.3969 172.12 94.0369 172.12C96.6769 172.12 99.1569 171.6 101.477 170.56C103.877 169.52 105.957 168.04 107.717 166.12C109.477 164.12 110.837 161.68 111.797 158.8C112.837 155.84 113.357 152.48 113.357 148.72C113.357 144.96 112.837 141.64 111.797 138.76C110.837 135.8 109.477 133.32 107.717 131.32C105.957 129.32 103.877 127.8 101.477 126.76C99.1569 125.72 96.6769 125.2 94.0369 125.2C91.3969 125.2 88.8769 125.72 86.4769 126.76C84.1569 127.8 82.1169 129.32 80.3569 131.32C78.5969 133.32 77.1969 135.8 76.1569 138.76C75.1969 141.64 74.7169 144.96 74.7169 148.72ZM63.9169 148.72C63.9169 144.16 64.5569 139.92 65.8369 136C67.1169 132 69.0369 128.56 71.5969 125.68C74.1569 122.72 77.3169 120.4 81.0769 118.72C84.8369 117.04 89.1569 116.2 94.0369 116.2C98.9969 116.2 103.317 117.04 106.997 118.72C110.757 120.4 113.917 122.72 116.477 125.68C119.037 128.56 120.957 132 122.237 136C123.517 139.92 124.157 144.16 124.157 148.72C124.157 153.28 123.517 157.52 122.237 161.44C120.957 165.36 119.037 168.8 116.477 171.76C113.917 174.64 110.757 176.92 106.997 178.6C103.317 180.2 98.9969 181 94.0369 181C89.1569 181 84.8369 180.2 81.0769 178.6C77.3169 176.92 74.1569 174.64 71.5969 171.76C69.0369 168.8 67.1169 165.36 65.8369 161.44C64.5569 157.52 63.9169 153.28 63.9169 148.72ZM136.783 126.64H126.343V117.64H136.783V108.4C136.783 103.36 138.223 99.56 141.103 97C144.063 94.36 148.343 93.04 153.943 93.04C154.903 93.04 155.983 93.12 157.183 93.28C158.463 93.44 159.583 93.68 160.543 94V102.88C159.663 102.56 158.703 102.36 157.663 102.28C156.623 102.12 155.663 102.04 154.783 102.04C152.303 102.04 150.383 102.52 149.023 103.48C147.663 104.44 146.983 106.28 146.983 109V117.64H158.983V126.64H146.983V179.68H136.783V126.64ZM208.449 117.64H220.809V126.64H208.449V165.16C208.449 166.36 208.529 167.32 208.689 168.04C208.929 168.76 209.329 169.32 209.889 169.72C210.449 170.12 211.209 170.4 212.169 170.56C213.209 170.64 214.529 170.68 216.129 170.68H220.809V179.68H213.009C210.369 179.68 208.089 179.52 206.169 179.2C204.329 178.8 202.809 178.12 201.609 177.16C200.489 176.2 199.649 174.84 199.089 173.08C198.529 171.32 198.249 169 198.249 166.12V126.64H187.689V117.64H198.249V99.04H208.449V117.64ZM228.541 94H238.741V126.76H238.981C239.781 124.84 240.901 123.24 242.341 121.96C243.781 120.6 245.381 119.52 247.141 118.72C248.981 117.84 250.861 117.2 252.781 116.8C254.781 116.4 256.701 116.2 258.541 116.2C262.621 116.2 266.021 116.76 268.741 117.88C271.461 119 273.661 120.56 275.341 122.56C277.021 124.56 278.181 126.96 278.821 129.76C279.541 132.48 279.901 135.52 279.901 138.88V179.68H269.701V137.68C269.701 133.84 268.581 130.8 266.341 128.56C264.101 126.32 261.021 125.2 257.101 125.2C253.981 125.2 251.261 125.68 248.941 126.64C246.701 127.6 244.821 128.96 243.301 130.72C241.781 132.48 240.621 134.56 239.821 136.96C239.101 139.28 238.741 141.84 238.741 144.64V179.68H228.541V94ZM334.701 142.72C334.541 140.32 333.981 138.04 333.021 135.88C332.141 133.72 330.901 131.88 329.301 130.36C327.781 128.76 325.941 127.52 323.781 126.64C321.701 125.68 319.381 125.2 316.821 125.2C314.181 125.2 311.781 125.68 309.621 126.64C307.541 127.52 305.741 128.76 304.221 130.36C302.701 131.96 301.501 133.84 300.621 136C299.741 138.08 299.221 140.32 299.061 142.72H334.701ZM344.541 160C343.181 166.96 340.181 172.2 335.541 175.72C330.901 179.24 325.061 181 318.021 181C313.061 181 308.741 180.2 305.061 178.6C301.461 177 298.421 174.76 295.941 171.88C293.461 169 291.581 165.56 290.301 161.56C289.101 157.56 288.421 153.2 288.261 148.48C288.261 143.76 288.981 139.44 290.421 135.52C291.861 131.6 293.861 128.2 296.421 125.32C299.061 122.44 302.141 120.2 305.661 118.6C309.261 117 313.181 116.2 317.421 116.2C322.941 116.2 327.501 117.36 331.101 119.68C334.781 121.92 337.701 124.8 339.861 128.32C342.101 131.84 343.621 135.68 344.421 139.84C345.301 144 345.661 147.96 345.501 151.72H299.061C298.981 154.44 299.301 157.04 300.021 159.52C300.741 161.92 301.901 164.08 303.501 166C305.101 167.84 307.141 169.32 309.621 170.44C312.101 171.56 315.021 172.12 318.381 172.12C322.701 172.12 326.221 171.12 328.941 169.12C331.741 167.12 333.581 164.08 334.461 160H344.541ZM86.76 273.68H74.88L55.32 201.68H55.08L35.28 273.68H23.4L1.44 188H13.08L29.88 259.28H30.12L49.32 188H61.68L80.64 259.28H80.88L98.28 188H109.68L86.76 273.68ZM115.817 242.72C115.817 246.48 116.297 249.84 117.257 252.8C118.297 255.68 119.697 258.12 121.457 260.12C123.217 262.04 125.257 263.52 127.577 264.56C129.977 265.6 132.497 266.12 135.137 266.12C137.777 266.12 140.257 265.6 142.577 264.56C144.977 263.52 147.057 262.04 148.817 260.12C150.577 258.12 151.937 255.68 152.897 252.8C153.937 249.84 154.457 246.48 154.457 242.72C154.457 238.96 153.937 235.64 152.897 232.76C151.937 229.8 150.577 227.32 148.817 225.32C147.057 223.32 144.977 221.8 142.577 220.76C140.257 219.72 137.777 219.2 135.137 219.2C132.497 219.2 129.977 219.72 127.577 220.76C125.257 221.8 123.217 223.32 121.457 225.32C119.697 227.32 118.297 229.8 117.257 232.76C116.297 235.64 115.817 238.96 115.817 242.72ZM105.017 242.72C105.017 238.16 105.657 233.92 106.937 230C108.217 226 110.137 222.56 112.697 219.68C115.257 216.72 118.417 214.4 122.177 212.72C125.937 211.04 130.257 210.2 135.137 210.2C140.097 210.2 144.417 211.04 148.097 212.72C151.857 214.4 155.017 216.72 157.577 219.68C160.137 222.56 162.057 226 163.337 230C164.617 233.92 165.257 238.16 165.257 242.72C165.257 247.28 164.617 251.52 163.337 255.44C162.057 259.36 160.137 262.8 157.577 265.76C155.017 268.64 151.857 270.92 148.097 272.6C144.417 274.2 140.097 275 135.137 275C130.257 275 125.937 274.2 122.177 272.6C118.417 270.92 115.257 268.64 112.697 265.76C110.137 262.8 108.217 259.36 106.937 255.44C105.657 251.52 105.017 247.28 105.017 242.72ZM173.323 211.64H182.923V224.72H183.163C185.643 219.68 188.683 215.96 192.283 213.56C195.883 211.16 200.443 210.04 205.963 210.2V221C201.883 221 198.403 221.56 195.523 222.68C192.643 223.8 190.323 225.44 188.563 227.6C186.803 229.76 185.523 232.4 184.723 235.52C183.923 238.56 183.523 242.08 183.523 246.08V273.68H173.323V211.64ZM210.644 188H220.844V273.68H210.644V188ZM240.486 243.2C240.486 246.08 240.846 248.92 241.566 251.72C242.366 254.44 243.526 256.88 245.046 259.04C246.646 261.2 248.646 262.92 251.046 264.2C253.526 265.48 256.406 266.12 259.686 266.12C263.126 266.12 266.046 265.44 268.446 264.08C270.846 262.72 272.806 260.96 274.326 258.8C275.846 256.56 276.926 254.04 277.566 251.24C278.286 248.44 278.646 245.6 278.646 242.72C278.646 239.68 278.286 236.76 277.566 233.96C276.846 231.08 275.686 228.56 274.086 226.4C272.566 224.24 270.566 222.52 268.086 221.24C265.606 219.88 262.606 219.2 259.086 219.2C255.646 219.2 252.726 219.88 250.326 221.24C247.926 222.6 246.006 224.4 244.566 226.64C243.126 228.88 242.086 231.44 241.446 234.32C240.806 237.2 240.486 240.16 240.486 243.2ZM288.486 273.68H278.286V265.28H278.046C276.366 268.72 273.726 271.2 270.126 272.72C266.526 274.24 262.566 275 258.246 275C253.446 275 249.246 274.12 245.646 272.36C242.126 270.6 239.166 268.24 236.766 265.28C234.446 262.32 232.686 258.88 231.486 254.96C230.286 251.04 229.686 246.88 229.686 242.48C229.686 238.08 230.246 233.92 231.366 230C232.566 226.08 234.326 222.68 236.646 219.8C239.046 216.84 242.006 214.52 245.526 212.84C249.126 211.08 253.286 210.2 258.006 210.2C259.606 210.2 261.326 210.36 263.166 210.68C265.006 211 266.846 211.56 268.686 212.36C270.526 213.08 272.246 214.08 273.846 215.36C275.526 216.56 276.926 218.08 278.046 219.92H278.286V188H288.486V273.68Z" fill="white"/>
<defs>
<linearGradient id="paint0_linear_2077_1349" x1="25.7992" y1="92.9919" x2="248.208" y2="101.546" gradientUnits="userSpaceOnUse">
<stop stop-color="#002944"/>
<stop offset="0.965448" stop-color="#4482A9"/>
</linearGradient>
</defs>
</svg>
