<svg width="34" height="34" viewBox="0 0 34 34" fill="none" xmlns="http://www.w3.org/2000/svg">
<g clip-path="url(#clip0_2081_3602)">
<path d="M17 34C7.62582 34 0 26.3742 0 17C0 7.62582 7.62582 0 17 0C26.3742 0 34 7.62582 34 17C34 26.3742 26.3742 34 17 34ZM17 2.125C8.79753 2.125 2.125 8.79753 2.125 17C2.125 25.2025 8.79753 31.875 17 31.875C25.2025 31.875 31.875 25.2025 31.875 17C31.875 8.79753 25.2025 2.125 17 2.125Z" fill="#373430" fill-opacity="0.3"/>
<path d="M11.7419 23.321C11.4698 23.321 11.1977 23.2178 10.991 23.0095C10.5759 22.5945 10.5759 21.9216 10.991 21.5065L21.5096 10.9876C21.9249 10.5726 22.5978 10.5726 23.0128 10.9876C23.4279 11.4027 23.4279 12.0756 23.0128 12.4909L12.4939 23.0095C12.2843 23.2178 12.0125 23.321 11.7419 23.321Z" fill="#373430" fill-opacity="0.3"/>
<path d="M22.2566 23.321C21.9848 23.321 21.7126 23.2178 21.5059 23.0095L10.9873 12.4922C10.572 12.0771 10.572 11.4042 10.9873 10.9892C11.4023 10.5739 12.0752 10.5739 12.4902 10.9892L23.0089 21.5078C23.4242 21.9229 23.4242 22.5958 23.0089 23.0108C22.8008 23.2178 22.5287 23.321 22.2566 23.321Z" fill="#373430" fill-opacity="0.3"/>
</g>
<defs>
<clipPath id="clip0_2081_3602">
<rect width="34" height="34" fill="white"/>
</clipPath>
</defs>
</svg>
