<svg width="25" height="25" viewBox="0 0 25 25" fill="none" xmlns="http://www.w3.org/2000/svg">
<g clip-path="url(#clip0_1_1996)">
<path d="M12.5 0C5.60762 0 0 5.60762 0 12.5C0 19.3924 5.60762 25 12.5 25C19.3924 25 25 19.3924 25 12.5C25 5.60762 19.3924 0 12.5 0ZM12.5 23.4375C6.46895 23.4375 1.5625 18.5311 1.5625 12.5C1.5625 6.46895 6.46895 1.5625 12.5 1.5625C18.5311 1.5625 23.4375 6.46895 23.4375 12.5C23.4375 18.5311 18.5311 23.4375 12.5 23.4375ZM17.7398 11.9477C18.0451 12.2529 18.0451 12.7473 17.7398 13.0523L13.8336 16.9586C13.6811 17.1111 13.4811 17.1875 13.2813 17.1875C13.0814 17.1875 12.8814 17.1111 12.7289 16.9586C12.4236 16.6533 12.4236 16.159 12.7289 15.8539L15.3016 13.2812H7.8125C7.38106 13.2812 7.03125 12.9318 7.03125 12.5C7.03125 12.0682 7.38106 11.7187 7.8125 11.7187H15.3016L12.7289 9.14609C12.4236 8.84082 12.4236 8.34648 12.7289 8.04141C13.0342 7.73633 13.5285 7.73613 13.8336 8.04141L17.7398 11.9477Z" fill="white"/>
</g>
<defs>
<clipPath id="clip0_1_1996">
<rect width="25" height="25" fill="white"/>
</clipPath>
</defs>
</svg>
