<svg width="19" height="19" viewBox="0 0 19 19" fill="none" xmlns="http://www.w3.org/2000/svg">
<g clip-path="url(#clip0_2_85)">
<path fill-rule="evenodd" clip-rule="evenodd" d="M9.27776 0.641842C9.30737 0.542319 9.39909 0.473633 9.50314 0.473633C9.60719 0.473633 9.69891 0.542319 9.72852 0.641842C9.72852 0.641842 10.141 2.02454 10.5831 3.5076C11.2877 5.87037 13.1359 7.71863 15.4987 8.42314C16.9817 8.86526 18.3644 9.27777 18.3644 9.27777C18.464 9.30737 18.5326 9.3991 18.5326 9.50315C18.5326 9.60719 18.464 9.69892 18.3644 9.72852C18.3644 9.72852 16.9817 10.141 15.4987 10.5832C13.1359 11.2877 11.2877 13.1359 10.5831 15.4987C10.141 16.9817 9.72852 18.3644 9.72852 18.3644C9.69891 18.464 9.60719 18.5327 9.50314 18.5327C9.39909 18.5327 9.30737 18.464 9.27776 18.3644C9.27776 18.3644 8.86526 16.9817 8.42313 15.4987C7.71863 13.1359 5.87036 11.2877 3.50759 10.5832C2.02454 10.141 0.641842 9.72852 0.641842 9.72852C0.542312 9.69892 0.473633 9.60719 0.473633 9.50315C0.473633 9.3991 0.542312 9.30737 0.641842 9.27777C0.641842 9.27777 2.02454 8.86526 3.50759 8.42314C5.87036 7.71863 7.71863 5.87037 8.42313 3.5076C8.86526 2.02454 9.27776 0.641842 9.27776 0.641842Z" fill="#002944"/>
</g>
<defs>
<clipPath id="clip0_2_85">
<rect width="19" height="19" fill="white"/>
</clipPath>
</defs>
</svg>
