<svg width="88" height="88" viewBox="0 0 88 88" fill="none" xmlns="http://www.w3.org/2000/svg">
<g clip-path="url(#clip0_1_2073)">
<path d="M78.9046 74.012H79.8629V73.5887H77.4648V74.012H78.4146V76.4399H78.9046V74.012Z" fill="#231F20"/>
<path d="M80.1914 76.4399H80.6417V74.012L81.4299 76.4399H81.8734L82.629 74.0472V76.4399H83.0759V73.5887H82.3703L81.6534 75.8661L80.9116 73.5887H80.1914V76.4399Z" fill="#231F20"/>
<path d="M44 88C68.3005 88 88 68.3005 88 44C88 19.6995 68.3005 0 44 0C19.6995 0 0 19.6995 0 44C0 68.3005 19.6995 88 44 88Z" fill="#097798"/>
<path d="M43.9999 85.8515C67.1139 85.8515 85.8514 67.1139 85.8514 44C85.8514 20.8861 67.1139 2.1485 43.9999 2.1485C20.886 2.1485 2.14844 20.8861 2.14844 44C2.14844 67.1139 20.886 85.8515 43.9999 85.8515Z" fill="white"/>
<path d="M44.0007 85.0213C66.5768 85.0213 84.8783 66.7098 84.8783 44.1214C84.8783 21.533 66.5768 3.22144 44.0007 3.22144C21.4246 3.22144 3.12305 21.533 3.12305 44.1214C3.12305 66.7098 21.4246 85.0213 44.0007 85.0213Z" fill="#102A4D"/>
<path d="M70.4079 44.1612C70.4079 29.5769 58.584 17.7531 43.9999 17.7531C29.4157 17.7531 17.5918 29.5764 17.5918 44.1612C17.5918 58.7459 29.4142 70.5692 43.9999 70.5692C58.5855 70.5692 70.4079 58.7454 70.4079 44.1612Z" fill="white"/>
<path d="M36.4167 51.1852L34.8757 51.9093C34.8258 51.9385 34.7839 51.9796 34.7538 52.029C34.7237 52.0783 34.7063 52.1344 34.7031 52.1921V63.6486C34.7065 63.7061 34.724 63.7619 34.7541 63.811C34.7842 63.8601 34.8259 63.901 34.8757 63.9301L36.4176 64.6521C36.4368 64.6634 36.4587 64.6691 36.481 64.6685C36.5033 64.6679 36.5249 64.6611 36.5435 64.6488C36.5621 64.6364 36.5768 64.6191 36.586 64.5988C36.5952 64.5786 36.5985 64.5561 36.5955 64.534V51.3033C36.5986 51.2811 36.5953 51.2585 36.5861 51.2381C36.5769 51.2176 36.5621 51.2002 36.5434 51.1879C36.5247 51.1755 36.5028 51.1687 36.4804 51.1682C36.458 51.1678 36.4359 51.1737 36.4167 51.1852Z" fill="#102B4E"/>
<path d="M40.355 50.0944L38.8412 50.4074C38.7885 50.4218 38.7418 50.4527 38.7079 50.4954C38.6739 50.5382 38.6545 50.5906 38.6523 50.6452V65.1945C38.6544 65.249 38.6739 65.3015 38.7078 65.3443C38.7418 65.3871 38.7885 65.418 38.8412 65.4325L40.3553 65.7455C40.3787 65.7509 40.403 65.7507 40.4264 65.7451C40.4498 65.7395 40.4715 65.7286 40.4899 65.7132C40.5084 65.6978 40.523 65.6783 40.5326 65.6563C40.5423 65.6343 40.5467 65.6104 40.5456 65.5864V50.2536C40.5466 50.2296 40.5421 50.2057 40.5324 50.1837C40.5227 50.1618 40.508 50.1424 40.4896 50.127C40.4712 50.1116 40.4495 50.1006 40.4261 50.095C40.4028 50.0893 40.3785 50.0891 40.355 50.0944Z" fill="#102B4E"/>
<path d="M44.712 49.7918C44.712 49.7918 44.3654 49.7832 44.092 49.7832C43.7285 49.7832 43.2079 49.8018 43.2079 49.8018C43.156 49.8043 43.107 49.8265 43.0709 49.8639C43.0348 49.9013 43.0144 49.951 43.0137 50.003V65.8363C43.0142 65.8883 43.0346 65.9381 43.0708 65.9755C43.1069 66.013 43.1559 66.0351 43.2079 66.0375C43.2079 66.0375 43.7285 66.0561 44.092 66.0561C44.3654 66.0561 44.712 66.0461 44.712 66.0461C44.7636 66.0442 44.8125 66.0225 44.8486 65.9854C44.8846 65.9484 44.905 65.8989 44.9054 65.8472V49.9906C44.905 49.9389 44.8846 49.8894 44.8486 49.8524C44.8126 49.8153 44.7636 49.7936 44.712 49.7918Z" fill="#102B4E"/>
<path d="M49.0769 50.3439L47.5643 50.0517C47.5407 50.0468 47.5163 50.0474 47.4929 50.0533C47.4696 50.0593 47.4478 50.0704 47.4294 50.086C47.411 50.1016 47.3964 50.1211 47.3866 50.1432C47.3769 50.1653 47.3723 50.1892 47.3732 50.2133V65.6258C47.3722 65.65 47.3767 65.674 47.3864 65.6962C47.3961 65.7183 47.4108 65.7379 47.4292 65.7536C47.4476 65.7692 47.4693 65.7805 47.4928 65.7864C47.5162 65.7924 47.5407 65.793 47.5643 65.7881L49.0769 65.496C49.1297 65.4827 49.1768 65.4527 49.2111 65.4103C49.2453 65.368 49.2649 65.3156 49.2668 65.2612V50.5792C49.2646 50.5248 49.245 50.4725 49.2108 50.4301C49.1765 50.3878 49.1296 50.3575 49.0769 50.3439Z" fill="#102B4E"/>
<path d="M53.1218 51.808L51.5827 51.1134C51.5632 51.1024 51.541 51.097 51.5186 51.0979C51.4962 51.0987 51.4745 51.1058 51.4559 51.1183C51.4373 51.1308 51.4225 51.1482 51.4132 51.1686C51.4039 51.189 51.4005 51.2116 51.4033 51.2338V64.603C51.4005 64.6253 51.4039 64.6479 51.4132 64.6683C51.4224 64.6888 51.4372 64.7062 51.4557 64.7188C51.4743 64.7313 51.496 64.7385 51.5185 64.7395C51.5409 64.7404 51.5631 64.7351 51.5827 64.7242L53.1218 64.0313C53.172 64.0031 53.2142 63.9626 53.2446 63.9137C53.275 63.8648 53.2926 63.8091 53.2958 63.7516V52.0876C53.2926 52.0301 53.275 51.9744 53.2446 51.9255C53.2142 51.8766 53.1719 51.8362 53.1218 51.808Z" fill="#102B4E"/>
<path d="M59.14 42.7481H28.8597C28.8358 42.7471 28.8119 42.7515 28.79 42.7612C28.768 42.7709 28.7486 42.7855 28.7333 42.804C28.7179 42.8224 28.7071 42.8441 28.7015 42.8674C28.6959 42.8908 28.6959 42.915 28.7012 42.9384L29.3297 45.9387C29.3445 45.9914 29.3755 46.038 29.4183 46.0719C29.4612 46.1058 29.5136 46.1253 29.5682 46.1276H58.4333C58.4879 46.1253 58.5403 46.1058 58.5832 46.0718C58.626 46.0379 58.657 45.9913 58.6718 45.9387L59.2995 42.9384C59.3048 42.915 59.3047 42.8906 59.2991 42.8672C59.2935 42.8438 59.2825 42.822 59.267 42.8036C59.2516 42.7852 59.2321 42.7706 59.21 42.7609C59.188 42.7513 59.164 42.7469 59.14 42.7481Z" fill="#102B4E"/>
<path d="M57.0522 47.0624H30.9501C30.9264 47.061 30.9028 47.0654 30.8812 47.075C30.8595 47.0846 30.8405 47.0992 30.8257 47.1177C30.8109 47.1362 30.8007 47.1579 30.7959 47.1811C30.7912 47.2043 30.7921 47.2283 30.7986 47.2511L31.0588 48.3402C31.0745 48.3928 31.1062 48.4392 31.1495 48.4729C31.1928 48.5066 31.2456 48.5259 31.3004 48.5282H56.701C56.7558 48.5259 56.8085 48.5066 56.8518 48.4729C56.8952 48.4392 56.9269 48.3928 56.9425 48.3402L57.2036 47.2511C57.2101 47.2283 57.211 47.2043 57.2064 47.1811C57.2017 47.1578 57.1915 47.1361 57.1767 47.1176C57.1618 47.0991 57.1428 47.0845 57.1211 47.0748C57.0995 47.0652 57.0758 47.061 57.0522 47.0624Z" fill="#102B4E"/>
<path d="M52.9967 29.1393L47.0855 28.5908C46.9631 28.5726 46.847 28.5251 46.7469 28.4525C46.6468 28.3798 46.5656 28.2842 46.5103 28.1735L44.1628 22.7244C44.1178 22.6194 44.058 22.5682 43.999 22.5682C43.94 22.5682 43.8809 22.6194 43.8357 22.7244L41.4881 28.174C41.4328 28.2846 41.3516 28.3802 41.2515 28.4529C41.1514 28.5255 41.0353 28.573 40.913 28.5913L35.0032 29.1398C34.7772 29.1616 34.7313 29.3013 34.9023 29.4512L39.36 33.3682C39.448 33.4549 39.5139 33.5615 39.5521 33.679C39.5902 33.7965 39.5995 33.9215 39.5791 34.0434L38.2762 39.8358C38.2265 40.0571 38.3454 40.1434 38.5412 40.0268L43.6441 36.9955C43.7537 36.9385 43.8754 36.9087 43.999 36.9087C44.1225 36.9087 44.2443 36.9385 44.3539 36.9955L49.4579 40.0268C49.653 40.1434 49.7718 40.0571 49.722 39.8358L48.4176 34.0434C48.3973 33.9214 48.4067 33.7964 48.445 33.6788C48.4834 33.5613 48.5495 33.4547 48.6379 33.3682L53.0987 29.4512C53.2692 29.3008 53.2236 29.1612 52.9967 29.1393Z" fill="#C6922C"/>
<path d="M16.1178 53.2309C15.3735 50.9888 12.9728 49.8329 10.7308 50.5763C9.9438 50.8489 9.25498 51.3482 8.75105 52.0113C8.24712 52.6745 7.95059 53.4719 7.8988 54.3031C7.847 55.1344 8.04225 55.9625 8.45996 56.683C8.87767 57.4036 9.49919 57.9845 10.2463 58.3527C10.9934 58.7209 11.8327 58.8598 12.6586 58.7521C13.4845 58.6443 14.2601 58.2947 14.8877 57.7472C15.5154 57.1997 15.9671 56.4788 16.186 55.6751C16.4048 54.8715 16.3811 54.0211 16.1178 53.2309ZM9.57882 55.3991C9.10572 53.9713 9.89038 52.82 11.3182 52.3468C12.7461 51.8736 14.0738 52.3235 14.5476 53.7514C15.0215 55.1792 14.2295 56.3457 12.8013 56.8193C11.373 57.2929 10.0526 56.8271 9.57882 55.3991Z" fill="white"/>
<path d="M15.7132 69.4135L16.9859 65.5916C17.4166 65.8491 17.9134 65.9748 18.4148 65.9533C18.9162 65.9318 19.4003 65.7639 19.8074 65.4704C20.9953 64.6306 21.3201 63.0007 20.4088 61.7118L17.8118 58.0365L11.0508 62.8148L12.1277 64.3375L14.5538 62.6229L15.5573 64.0445L14.3793 67.525L15.7132 69.4135ZM17.6589 60.4274L18.9649 62.2752C19.059 62.398 19.1271 62.5387 19.165 62.6887C19.2029 62.8387 19.2097 62.9948 19.1851 63.1476C19.1606 63.3003 19.105 63.4464 19.022 63.577C18.939 63.7075 18.8302 63.8197 18.7023 63.9067C18.5763 64 18.433 64.0669 18.2806 64.1036C18.1283 64.1402 17.9702 64.1458 17.8156 64.1201C17.6611 64.0944 17.5133 64.0378 17.381 63.9537C17.2488 63.8697 17.1349 63.7599 17.0459 63.6309L15.7408 61.7831L17.6589 60.4274Z" fill="white"/>
<path d="M20.2369 71.2577L24.5346 66.1474L23.1075 64.9471L17.7773 71.2848L22.26 75.0543L23.2924 73.8268L20.2369 71.2577Z" fill="white"/>
<path d="M29.8849 69.9107L28.1408 69.0608L24.5098 76.5033L26.253 77.354C29.1359 78.7601 31.7774 78.1401 32.8409 75.961C33.9044 73.7819 32.7678 71.3177 29.8849 69.9107ZM31.0976 75.1103C30.3231 76.6975 28.7554 76.7348 27.2909 76.0201L26.9116 75.8344L29.0931 71.3643L29.4725 71.55C30.9357 72.2646 31.8713 73.5232 31.0976 75.1103Z" fill="white"/>
<path d="M39.498 81.6469L41.3618 81.6888L41.4293 78.7181L43.1695 78.7576L45.2647 81.7774L47.576 81.8294L45.264 78.5316C45.7274 78.3388 46.1241 78.0146 46.4053 77.5989C46.6865 77.1832 46.8399 76.6943 46.8464 76.1925C46.8791 74.7389 45.7635 73.5076 44.1849 73.471L39.686 73.3693L39.498 81.6469ZM41.5156 74.9153L43.7778 74.9665C44.4242 74.9813 44.9485 75.4536 44.9323 76.1498C44.932 76.3063 44.9002 76.4611 44.8389 76.6051C44.7775 76.7491 44.6879 76.8793 44.5753 76.988C44.4626 77.0967 44.3293 77.1816 44.1832 77.2378C44.0371 77.2939 43.8812 77.3201 43.7248 77.3149L41.4634 77.2627L41.5156 74.9153Z" fill="white"/>
<path d="M51.3593 77.4821L55.2181 76.5149L54.8281 74.9597L50.9694 75.9268L50.5794 74.3716L54.6673 73.3468L54.2773 71.7916L48.3809 73.2691L50.3936 81.2997L56.2902 79.822L55.9002 78.2661L51.8123 79.2907L51.3593 77.4821Z" fill="white"/>
<path d="M59.8098 70.6645C60.328 70.3843 60.8833 70.1789 61.4592 70.0546L61.0862 68.504C60.2804 68.6486 59.5051 68.9294 58.7937 69.3345C56.3775 70.642 55.6427 73.2025 56.7668 75.2791C57.8909 77.3556 60.4639 78.1411 62.8583 76.8454C63.5726 76.4686 64.2169 75.9719 64.7631 75.377L63.7136 74.221C63.2945 74.6349 62.8187 74.9873 62.3005 75.2674C60.5082 76.2377 59.1231 75.7157 58.4068 74.3926C57.6906 73.0695 58.0176 71.6348 59.8098 70.6645Z" fill="white"/>
<path d="M70.1752 71.3394C70.9811 70.5527 71.4437 69.4795 71.4622 68.3534C71.4807 67.2273 71.0537 66.1395 70.274 65.3267C69.4944 64.514 68.4253 64.0421 67.2994 64.0137C66.1735 63.9854 65.082 64.4029 64.2625 65.1755C62.5572 66.8107 62.5456 69.4754 64.1809 71.1799C65.8162 72.8845 68.4708 72.9754 70.1752 71.3394ZM65.4068 66.3681C66.4929 65.3263 67.8866 65.54 68.9283 66.6261C69.9701 67.7121 70.1162 69.1042 69.0309 70.1461C67.9456 71.188 66.5683 70.9742 65.5272 69.8891C64.4862 68.8041 64.3203 67.4099 65.4068 66.3681Z" fill="white"/>
<path d="M77.9266 60.608L79.0617 58.5929L75.0619 59.0813C75.1102 58.5816 75.011 58.0786 74.7765 57.6346C74.5421 57.1906 74.1828 56.825 73.7429 56.583C72.475 55.8698 70.8622 56.2737 70.0876 57.6504L67.8789 61.5728L75.0954 65.6366L76.0106 64.0114L73.4212 62.5524L74.275 61.036L77.9266 60.608ZM73.2642 59.8662L72.154 61.8386L70.1054 60.685L71.2163 58.7132C71.287 58.5756 71.385 58.4538 71.5043 58.3554C71.6237 58.2569 71.7618 58.1838 71.9104 58.1406C72.0589 58.0973 72.2147 58.0848 72.3683 58.1038C72.5218 58.1228 72.6699 58.1729 72.8034 58.251C72.9417 58.3249 73.0636 58.4258 73.162 58.5477C73.2604 58.6697 73.3333 58.8102 73.3763 58.9609C73.4193 59.1116 73.4315 59.2694 73.4123 59.425C73.393 59.5805 73.3426 59.7306 73.2642 59.8662Z" fill="white"/>
<path d="M80.4212 53.8619C81.1483 50.7373 79.9543 48.3018 77.5926 47.7518C75.231 47.2017 73.0828 48.8595 72.3557 51.9842L71.916 53.8735L79.9815 55.7512L80.4212 53.8619ZM78.8899 53.1479L78.7936 53.5597L73.9499 52.4317L74.0454 52.0199C74.4144 50.4335 75.4329 49.2411 77.1521 49.6411C78.8713 50.0411 79.259 51.5608 78.8899 53.1479Z" fill="white"/>
<path d="M79.2144 39.2858C77.6855 39.3363 77.44 40.1914 76.8146 41.9658C76.2226 43.6524 76.0913 44.1799 75.5693 44.197C75.0846 44.2133 74.9085 43.8077 74.8709 42.64C74.8416 41.7307 74.9243 40.8211 75.1171 39.9319L73.5921 39.6958C73.356 40.6852 73.2471 41.7007 73.2682 42.7177C73.3459 45.0662 74.1515 46.1104 75.6804 46.0591C77.1347 46.0118 77.576 45.0639 78.2106 43.1762C78.7319 41.641 78.8158 41.1656 79.3254 41.1493C79.9471 41.1282 80.2033 41.7421 80.2383 42.7986C80.2701 43.7557 80.0938 44.8193 79.7924 45.8734L81.2343 46.2122C81.6422 45.0946 81.8395 43.9111 81.8162 42.7217C81.7494 40.6827 80.7673 39.2345 79.2144 39.2858Z" fill="white"/>
<path d="M17.1579 20.0337L16.0586 18.8902C15.4409 19.4098 14.8852 19.999 14.4024 20.6459C12.7965 22.7676 12.976 25.4144 14.9982 26.9448C16.882 28.3712 19.4648 28.1116 21.228 25.7822C21.7011 25.1581 22.3846 23.9449 22.6092 23.3189L19.4074 20.8945L18.3564 22.282L20.4788 23.8885C20.2849 24.2475 20.0619 24.5899 19.8121 24.9125C18.7842 26.2709 17.3239 26.366 16.1244 25.4578C14.7858 24.4448 14.6327 23.0813 15.8641 21.4554C16.2486 20.9409 16.6819 20.4648 17.1579 20.0337Z" fill="white"/>
<path d="M25.7434 19.1807C24.8725 19.8224 23.8137 19.7051 23.1066 18.7441L20.2408 14.8481L18.7383 15.9536L21.6041 19.8486C22.7393 21.3915 24.9184 21.8555 26.7308 20.5229C28.5433 19.1903 28.7484 16.9703 27.6134 15.4281L24.7474 11.5322L23.2449 12.6377L26.1109 16.5337C26.8186 17.4949 26.6151 18.5406 25.7434 19.1807Z" fill="white"/>
<path d="M29.667 9.27084L27.9609 10.0239L31.3045 17.5989L33.0105 16.8459L29.667 9.27084Z" fill="white"/>
<path d="M40.4171 14.8854L42.2001 14.5443L40.6455 6.41119L38.8385 6.75702L39.8679 12.1423L34.906 7.50814L33.123 7.8492L34.6775 15.9823L36.4845 15.6366L35.4576 10.2637L40.4171 14.8854Z" fill="white"/>
<path d="M45.6655 14.7227L46.3453 9.29469L49.6377 15.2199L51.4385 15.4451L52.467 7.22977L50.6414 7.0013L49.9608 12.441L46.6692 6.5041L44.8684 6.27881L43.8398 14.4943L45.6655 14.7227Z" fill="white"/>
<path d="M56.1212 13.5891L59.7694 15.1785L60.4103 13.7079L56.7622 12.1184L57.403 10.6478L61.2679 12.332L61.9089 10.8614L56.3333 8.43219L53.0254 16.0244L58.6002 18.4538L59.2411 16.9831L55.3762 15.2989L56.1212 13.5891Z" fill="white"/>
<path d="M63.0051 19.9169C62.2546 19.3225 61.5578 18.5005 60.9472 17.5885L59.7578 18.4703C60.3466 19.5038 61.1218 20.4192 62.0441 21.1702C63.6422 22.4365 65.3816 22.6246 66.3465 21.4057C67.2957 20.2064 66.8032 19.4681 65.8539 17.8429C64.9496 16.3023 64.6327 15.8605 64.9566 15.4517C65.2581 15.071 65.6799 15.1993 66.5958 15.9248C67.3089 16.49 67.9492 17.1413 68.5022 17.8639L69.6683 16.8524C69.0662 16.0327 68.3619 15.2933 67.5723 14.6523C65.7303 13.1933 64.4136 13.1335 63.4642 14.3323C62.5608 15.4727 62.9981 16.422 64.0283 18.1258C64.8619 19.5165 65.1702 19.888 64.854 20.2872C64.4679 20.7737 63.8332 20.5733 63.0051 19.9169Z" fill="white"/>
<path d="M75.8511 24.4743C75.4821 23.5271 74.9936 22.6308 74.3976 21.8073C72.9962 19.9211 71.7399 19.5226 70.5125 20.4347C69.3448 21.3015 69.522 22.3314 70.0751 24.2436C70.5202 25.8021 70.7215 26.2401 70.3128 26.5442C69.8132 26.9155 69.2531 26.5565 68.6232 25.709C68.0529 24.9408 67.5922 23.9657 67.2388 22.9279L65.8613 23.4709C66.1626 24.6213 66.6744 25.706 67.3708 26.67C68.5866 28.3069 70.2165 28.9386 71.4642 28.0117C72.6916 27.1004 72.4073 26.2583 71.9108 24.4436C71.4369 22.7212 71.2451 22.2131 71.6646 21.9017C72.0538 21.6126 72.4275 21.8456 73.1243 22.7834C73.6665 23.514 74.1163 24.3088 74.4636 25.1497L75.8511 24.4743Z" fill="white"/>
<path d="M14.5965 49.3676L14.5661 47.5273L9.71149 46.4754L14.5218 44.8292L14.5016 43.5488L9.63917 42.0611L14.4574 40.8509L14.4271 39.0111L6.17969 41.16L6.20379 42.64L11.4034 44.2341L6.25898 46.0092L6.28309 47.4884L14.5965 49.3676Z" fill="white"/>
</g>
<defs>
<clipPath id="clip0_1_2073">
<rect width="88" height="88" fill="white"/>
</clipPath>
</defs>
</svg>
