<svg width="1893" height="179" viewBox="0 0 1893 179" fill="none" xmlns="http://www.w3.org/2000/svg">
<path d="M-0.00027345 -1.86563e-05H17.6397L74.4797 156.555H74.9697L131.32 -1.86563e-05H148.96L84.0347 174.93H64.6797L-0.00027345 -1.86563e-05ZM194.061 57.82C186.711 57.82 180.259 59.3717 174.706 62.475C169.152 65.5783 164.497 69.6617 160.741 74.725C157.147 79.7883 154.371 85.5867 152.411 92.12C150.614 98.49 149.716 105.023 149.716 111.72C149.716 118.417 150.614 125.032 152.411 131.565C154.371 137.935 157.147 143.652 160.741 148.715C164.497 153.778 169.152 157.862 174.706 160.965C180.259 164.068 186.711 165.62 194.061 165.62C201.411 165.62 207.862 164.068 213.416 160.965C218.969 157.862 223.542 153.778 227.136 148.715C230.892 143.652 233.669 137.935 235.466 131.565C237.426 125.032 238.406 118.417 238.406 111.72C238.406 105.023 237.426 98.49 235.466 92.12C233.669 85.5867 230.892 79.7883 227.136 74.725C223.542 69.6617 218.969 65.5783 213.416 62.475C207.862 59.3717 201.411 57.82 194.061 57.82ZM194.061 44.835C203.697 44.835 212.191 46.6317 219.541 50.225C227.054 53.8183 233.342 58.6367 238.406 64.68C243.469 70.7233 247.307 77.8283 249.921 85.995C252.534 93.9983 253.841 102.573 253.841 111.72C253.841 120.867 252.534 129.523 249.921 137.69C247.307 145.693 243.469 152.717 238.406 158.76C233.342 164.803 227.054 169.622 219.541 173.215C212.191 176.645 203.697 178.36 194.061 178.36C184.424 178.36 175.849 176.645 168.336 173.215C160.986 169.622 154.779 164.803 149.716 158.76C144.652 152.717 140.814 145.693 138.201 137.69C135.587 129.523 134.281 120.867 134.281 111.72C134.281 102.573 135.587 93.9983 138.201 85.995C140.814 77.8283 144.652 70.7233 149.716 64.68C154.779 58.6367 160.986 53.8183 168.336 50.225C175.849 46.6317 184.424 44.835 194.061 44.835ZM269.683 -1.86563e-05H285.118V24.745H269.683V-1.86563e-05ZM269.683 48.51H285.118V174.93H269.683V48.51ZM396.488 88.2C394.365 78.7267 390.445 71.295 384.728 65.905C379.012 60.515 371.008 57.82 360.718 57.82C353.368 57.82 346.917 59.3717 341.363 62.475C335.81 65.5783 331.155 69.6617 327.398 74.725C323.805 79.7883 321.028 85.5867 319.068 92.12C317.272 98.49 316.373 105.023 316.373 111.72C316.373 118.417 317.272 125.032 319.068 131.565C321.028 137.935 323.805 143.652 327.398 148.715C331.155 153.778 335.81 157.862 341.363 160.965C346.917 164.068 353.368 165.62 360.718 165.62C365.455 165.62 369.947 164.722 374.193 162.925C378.44 161.128 382.197 158.678 385.463 155.575C388.73 152.308 391.425 148.47 393.548 144.06C395.672 139.65 396.978 134.832 397.468 129.605H412.903C410.78 144.958 405.145 156.963 395.998 165.62C386.852 174.113 375.092 178.36 360.718 178.36C351.082 178.36 342.507 176.645 334.993 173.215C327.643 169.622 321.437 164.803 316.373 158.76C311.31 152.717 307.472 145.693 304.858 137.69C302.245 129.523 300.938 120.867 300.938 111.72C300.938 102.573 302.245 93.9983 304.858 85.995C307.472 77.8283 311.31 70.7233 316.373 64.68C321.437 58.6367 327.643 53.8183 334.993 50.225C342.507 46.6317 351.082 44.835 360.718 44.835C374.275 44.835 385.708 48.4283 395.018 55.615C404.492 62.8017 410.127 73.6633 411.923 88.2H396.488ZM517.899 102.9C517.736 97.02 516.674 91.385 514.714 85.995C512.917 80.605 510.304 75.8683 506.874 71.785C503.444 67.5383 499.279 64.19 494.379 61.74C489.479 59.1267 483.926 57.82 477.719 57.82C471.349 57.82 465.714 59.1267 460.814 61.74C455.914 64.19 451.749 67.5383 448.319 71.785C444.889 75.8683 442.112 80.6867 439.989 86.24C438.029 91.63 436.722 97.1833 436.069 102.9H517.899ZM436.069 115.885C436.069 121.438 436.804 127.237 438.274 133.28C439.907 139.16 442.439 144.468 445.869 149.205C449.299 153.942 453.627 157.862 458.854 160.965C464.081 164.068 470.369 165.62 477.719 165.62C488.989 165.62 497.809 162.68 504.179 156.8C510.549 150.92 514.959 143.08 517.409 133.28H532.844C529.577 147.653 523.534 158.76 514.714 166.6C506.057 174.44 493.726 178.36 477.719 178.36C467.756 178.36 459.099 176.645 451.749 173.215C444.562 169.622 438.682 164.803 434.109 158.76C429.536 152.553 426.106 145.448 423.819 137.445C421.696 129.278 420.634 120.703 420.634 111.72C420.634 103.39 421.696 95.2233 423.819 87.22C426.106 79.2167 429.536 72.1117 434.109 65.905C438.682 59.535 444.562 54.4717 451.749 50.715C459.099 46.795 467.756 44.835 477.719 44.835C487.846 44.835 496.502 46.8767 503.689 50.96C510.876 55.0433 516.674 60.4333 521.084 67.13C525.657 73.6633 528.924 81.2583 530.884 89.915C532.844 98.4083 533.661 107.065 533.334 115.885H436.069ZM622.405 85.505C622.242 80.7683 621.262 76.685 619.465 73.255C617.668 69.6617 615.218 66.7217 612.115 64.435C609.175 62.1483 605.745 60.515 601.825 59.535C597.905 58.3917 593.74 57.82 589.33 57.82C585.9 57.82 582.388 58.2283 578.795 59.045C575.365 59.6983 572.18 60.9233 569.24 62.72C566.3 64.3533 563.932 66.5583 562.135 69.335C560.338 72.1117 559.44 75.5417 559.44 79.625C559.44 83.055 560.257 85.995 561.89 88.445C563.687 90.7317 565.892 92.6917 568.505 94.325C571.118 95.9583 573.977 97.3467 577.08 98.49C580.183 99.47 583.042 100.287 585.655 100.94L606.235 105.595C610.645 106.248 614.973 107.473 619.22 109.27C623.63 110.903 627.468 113.108 630.735 115.885C634.165 118.662 636.942 122.092 639.065 126.175C641.188 130.258 642.25 135.077 642.25 140.63C642.25 147.49 640.698 153.37 637.595 158.27C634.492 163.007 630.49 166.927 625.59 170.03C620.853 172.97 615.463 175.093 609.42 176.4C603.377 177.707 597.415 178.36 591.535 178.36C576.672 178.36 564.585 174.848 555.275 167.825C546.128 160.802 540.902 149.532 539.595 134.015H555.03C555.683 144.468 559.44 152.39 566.3 157.78C573.323 163.007 581.98 165.62 592.27 165.62C596.027 165.62 599.865 165.212 603.785 164.395C607.868 163.578 611.625 162.19 615.055 160.23C618.485 158.27 621.262 155.82 623.385 152.88C625.672 149.777 626.815 146.02 626.815 141.61C626.815 137.853 625.998 134.75 624.365 132.3C622.895 129.687 620.853 127.563 618.24 125.93C615.627 124.133 612.605 122.663 609.175 121.52C605.908 120.377 602.56 119.397 599.13 118.58L579.285 114.17C574.222 112.863 569.567 111.393 565.32 109.76C561.073 107.963 557.317 105.84 554.05 103.39C550.947 100.777 548.497 97.6733 546.7 94.08C544.903 90.3233 544.005 85.75 544.005 80.36C544.005 73.99 545.393 68.5183 548.17 63.945C551.11 59.3717 554.867 55.6967 559.44 52.92C564.013 50.1433 569.077 48.1017 574.63 46.795C580.347 45.4883 585.982 44.835 591.535 44.835C597.905 44.835 603.785 45.6517 609.175 47.285C614.728 48.9183 619.547 51.45 623.63 54.88C627.877 58.31 631.225 62.5567 633.675 67.62C636.125 72.6833 637.513 78.645 637.84 85.505H622.405ZM771.553 57.82C764.203 57.82 757.751 59.3717 752.198 62.475C746.644 65.5783 741.989 69.6617 738.233 74.725C734.639 79.7883 731.863 85.5867 729.903 92.12C728.106 98.49 727.208 105.023 727.208 111.72C727.208 118.417 728.106 125.032 729.903 131.565C731.863 137.935 734.639 143.652 738.233 148.715C741.989 153.778 746.644 157.862 752.198 160.965C757.751 164.068 764.203 165.62 771.553 165.62C778.903 165.62 785.354 164.068 790.908 160.965C796.461 157.862 801.034 153.778 804.628 148.715C808.384 143.652 811.161 137.935 812.958 131.565C814.918 125.032 815.898 118.417 815.898 111.72C815.898 105.023 814.918 98.49 812.958 92.12C811.161 85.5867 808.384 79.7883 804.628 74.725C801.034 69.6617 796.461 65.5783 790.908 62.475C785.354 59.3717 778.903 57.82 771.553 57.82ZM771.553 44.835C781.189 44.835 789.683 46.6317 797.033 50.225C804.546 53.8183 810.834 58.6367 815.898 64.68C820.961 70.7233 824.799 77.8283 827.413 85.995C830.026 93.9983 831.333 102.573 831.333 111.72C831.333 120.867 830.026 129.523 827.413 137.69C824.799 145.693 820.961 152.717 815.898 158.76C810.834 164.803 804.546 169.622 797.033 173.215C789.683 176.645 781.189 178.36 771.553 178.36C761.916 178.36 753.341 176.645 745.828 173.215C738.478 169.622 732.271 164.803 727.208 158.76C722.144 152.717 718.306 145.693 715.693 137.69C713.079 129.523 711.773 120.867 711.773 111.72C711.773 102.573 713.079 93.9983 715.693 85.995C718.306 77.8283 722.144 70.7233 727.208 64.68C732.271 58.6367 738.478 53.8183 745.828 50.225C753.341 46.6317 761.916 44.835 771.553 44.835ZM895.685 61.495H870.695V174.93H855.26V61.495H833.7V48.51H855.26V36.995C855.26 31.605 855.669 26.6233 856.485 22.05C857.302 17.4767 858.854 13.5567 861.14 10.29C863.427 7.02332 866.53 4.49165 870.45 2.69499C874.534 0.898318 879.679 -1.86563e-05 885.885 -1.86563e-05C888.172 -1.86563e-05 890.295 0.081647 892.255 0.244978C894.215 0.408319 896.42 0.653321 898.87 0.979983V14.21C896.747 13.8833 894.787 13.6383 892.99 13.475C891.194 13.1483 889.397 12.985 887.6 12.985C883.354 12.985 880.087 13.6383 877.8 14.945C875.514 16.2516 873.799 18.0483 872.655 20.335C871.675 22.4583 871.104 24.99 870.94 27.93C870.777 30.87 870.695 34.055 870.695 37.485V48.51H895.685V61.495ZM988.322 48.51H1014.05V61.495H988.322V146.755C988.322 151.818 988.975 155.82 990.282 158.76C991.752 161.537 995.264 163.088 1000.82 163.415C1005.23 163.415 1009.64 163.17 1014.05 162.68V175.665C1011.76 175.665 1009.47 175.747 1007.19 175.91C1004.9 176.073 1002.61 176.155 1000.33 176.155C990.037 176.155 982.85 174.195 978.767 170.275C974.684 166.192 972.724 158.76 972.887 147.98V61.495H950.837V48.51H972.887V10.535H988.322V48.51ZM1028.72 -1.86563e-05H1044.16V70.315H1044.65C1047.59 62.6383 1052.81 56.5133 1060.33 51.94C1067.84 47.2033 1076.09 44.835 1085.07 44.835C1093.89 44.835 1101.24 45.9783 1107.12 48.265C1113.17 50.5517 1117.98 53.8183 1121.58 58.065C1125.17 62.1483 1127.7 67.2117 1129.17 73.255C1130.64 79.2983 1131.38 86.0767 1131.38 93.59V174.93H1115.94V96.04C1115.94 90.65 1115.45 85.6683 1114.47 81.095C1113.49 76.3583 1111.78 72.275 1109.33 68.845C1106.88 65.415 1103.53 62.72 1099.28 60.76C1095.2 58.8 1090.05 57.82 1083.85 57.82C1077.64 57.82 1072.09 58.9633 1067.19 61.25C1062.45 63.3733 1058.37 66.395 1054.94 70.315C1051.67 74.0717 1049.06 78.645 1047.1 84.035C1045.3 89.2617 1044.32 94.9783 1044.16 101.185V174.93H1028.72V-1.86563e-05ZM1244.1 102.9C1243.94 97.02 1242.88 91.385 1240.92 85.995C1239.12 80.605 1236.51 75.8683 1233.08 71.785C1229.65 67.5383 1225.48 64.19 1220.58 61.74C1215.68 59.1267 1210.13 57.82 1203.92 57.82C1197.55 57.82 1191.92 59.1267 1187.02 61.74C1182.12 64.19 1177.95 67.5383 1174.52 71.785C1171.09 75.8683 1168.32 80.6867 1166.19 86.24C1164.23 91.63 1162.93 97.1833 1162.27 102.9H1244.1ZM1162.27 115.885C1162.27 121.438 1163.01 127.237 1164.48 133.28C1166.11 139.16 1168.64 144.468 1172.07 149.205C1175.5 153.942 1179.83 157.862 1185.06 160.965C1190.29 164.068 1196.57 165.62 1203.92 165.62C1215.19 165.62 1224.01 162.68 1230.38 156.8C1236.75 150.92 1241.16 143.08 1243.61 133.28H1259.05C1255.78 147.653 1249.74 158.76 1240.92 166.6C1232.26 174.44 1219.93 178.36 1203.92 178.36C1193.96 178.36 1185.3 176.645 1177.95 173.215C1170.77 169.622 1164.89 164.803 1160.31 158.76C1155.74 152.553 1152.31 145.448 1150.02 137.445C1147.9 129.278 1146.84 120.703 1146.84 111.72C1146.84 103.39 1147.9 95.2233 1150.02 87.22C1152.31 79.2167 1155.74 72.1117 1160.31 65.905C1164.89 59.535 1170.77 54.4717 1177.95 50.715C1185.3 46.795 1193.96 44.835 1203.92 44.835C1214.05 44.835 1222.71 46.8767 1229.89 50.96C1237.08 55.0433 1242.88 60.4333 1247.29 67.13C1251.86 73.6633 1255.13 81.2583 1257.09 89.915C1259.05 98.4083 1259.87 107.065 1259.54 115.885H1162.27ZM1319.04 -1.86563e-05H1336.93L1376.62 153.125H1377.11L1419.74 -1.86563e-05H1440.56L1483.44 153.125H1483.93L1523.86 -1.86563e-05H1540.52L1492.26 174.93H1474.62L1430.27 18.375H1429.78L1385.68 174.93H1367.55L1319.04 -1.86563e-05ZM1597.77 57.82C1590.42 57.82 1583.97 59.3717 1578.41 62.475C1572.86 65.5783 1568.2 69.6617 1564.45 74.725C1560.85 79.7883 1558.08 85.5867 1556.12 92.12C1554.32 98.49 1553.42 105.023 1553.42 111.72C1553.42 118.417 1554.32 125.032 1556.12 131.565C1558.08 137.935 1560.85 143.652 1564.45 148.715C1568.2 153.778 1572.86 157.862 1578.41 160.965C1583.97 164.068 1590.42 165.62 1597.77 165.62C1605.12 165.62 1611.57 164.068 1617.12 160.965C1622.68 157.862 1627.25 153.778 1630.84 148.715C1634.6 143.652 1637.38 137.935 1639.17 131.565C1641.13 125.032 1642.11 118.417 1642.11 111.72C1642.11 105.023 1641.13 98.49 1639.17 92.12C1637.38 85.5867 1634.6 79.7883 1630.84 74.725C1627.25 69.6617 1622.68 65.5783 1617.12 62.475C1611.57 59.3717 1605.12 57.82 1597.77 57.82ZM1597.77 44.835C1607.4 44.835 1615.9 46.6317 1623.25 50.225C1630.76 53.8183 1637.05 58.6367 1642.11 64.68C1647.18 70.7233 1651.01 77.8283 1653.63 85.995C1656.24 93.9983 1657.55 102.573 1657.55 111.72C1657.55 120.867 1656.24 129.523 1653.63 137.69C1651.01 145.693 1647.18 152.717 1642.11 158.76C1637.05 164.803 1630.76 169.622 1623.25 173.215C1615.9 176.645 1607.4 178.36 1597.77 178.36C1588.13 178.36 1579.56 176.645 1572.04 173.215C1564.69 169.622 1558.49 164.803 1553.42 158.76C1548.36 152.717 1544.52 145.693 1541.91 137.69C1539.29 129.523 1537.99 120.867 1537.99 111.72C1537.99 102.573 1539.29 93.9983 1541.91 85.995C1544.52 77.8283 1548.36 70.7233 1553.42 64.68C1558.49 58.6367 1564.69 53.8183 1572.04 50.225C1579.56 46.6317 1588.13 44.835 1597.77 44.835ZM1673.14 48.51H1687.35V78.155H1687.84C1691.76 67.865 1697.81 59.9433 1705.97 54.39C1714.3 48.8367 1724.19 46.305 1735.62 46.795V62.23C1728.6 61.9033 1722.23 62.8833 1716.51 65.17C1710.79 67.2933 1705.81 70.3967 1701.56 74.48C1697.48 78.5633 1694.3 83.4633 1692.01 89.18C1689.72 94.7333 1688.58 100.858 1688.58 107.555V174.93H1673.14V48.51ZM1743.32 -1.86563e-05H1758.76V174.93H1743.32V-1.86563e-05ZM1892.17 174.93H1877.96V150.92H1877.47C1875.84 155.003 1873.39 158.76 1870.12 162.19C1867.02 165.62 1863.43 168.56 1859.34 171.01C1855.26 173.297 1850.85 175.093 1846.11 176.4C1841.54 177.707 1836.97 178.36 1832.39 178.36C1822.76 178.36 1814.35 176.645 1807.16 173.215C1800.14 169.622 1794.26 164.803 1789.52 158.76C1784.78 152.553 1781.27 145.448 1778.98 137.445C1776.7 129.278 1775.55 120.703 1775.55 111.72C1775.55 102.737 1776.7 94.2433 1778.98 86.24C1781.27 78.0733 1784.78 70.9683 1789.52 64.925C1794.26 58.7183 1800.14 53.8183 1807.16 50.225C1814.35 46.6317 1822.76 44.835 1832.39 44.835C1837.13 44.835 1841.7 45.4067 1846.11 46.55C1850.69 47.6933 1854.93 49.49 1858.85 51.94C1862.77 54.2267 1866.2 57.085 1869.14 60.515C1872.25 63.945 1874.62 67.9467 1876.25 72.52H1876.74V-1.86563e-05H1892.17V174.93ZM1790.99 111.72C1790.99 118.253 1791.72 124.787 1793.19 131.32C1794.83 137.69 1797.28 143.407 1800.54 148.47C1803.97 153.533 1808.3 157.698 1813.53 160.965C1818.76 164.068 1825.04 165.62 1832.39 165.62C1840.56 165.62 1847.42 164.068 1852.97 160.965C1858.69 157.698 1863.26 153.533 1866.69 148.47C1870.29 143.407 1872.82 137.69 1874.29 131.32C1875.92 124.787 1876.74 118.253 1876.74 111.72C1876.74 105.187 1875.92 98.735 1874.29 92.365C1872.82 85.8317 1870.29 80.0333 1866.69 74.97C1863.26 69.9067 1858.69 65.8233 1852.97 62.72C1847.42 59.4533 1840.56 57.82 1832.39 57.82C1825.04 57.82 1818.76 59.4533 1813.53 62.72C1808.3 65.8233 1803.97 69.9067 1800.54 74.97C1797.28 80.0333 1794.83 85.8317 1793.19 92.365C1791.72 98.735 1790.99 105.187 1790.99 111.72Z" fill="url(#paint0_linear_1_1838)"/>
<path d="M-0.00027345 -1.86563e-05H17.6397L74.4797 156.555H74.9697L131.32 -1.86563e-05H148.96L84.0347 174.93H64.6797L-0.00027345 -1.86563e-05ZM194.061 57.82C186.711 57.82 180.259 59.3717 174.706 62.475C169.152 65.5783 164.497 69.6617 160.741 74.725C157.147 79.7883 154.371 85.5867 152.411 92.12C150.614 98.49 149.716 105.023 149.716 111.72C149.716 118.417 150.614 125.032 152.411 131.565C154.371 137.935 157.147 143.652 160.741 148.715C164.497 153.778 169.152 157.862 174.706 160.965C180.259 164.068 186.711 165.62 194.061 165.62C201.411 165.62 207.862 164.068 213.416 160.965C218.969 157.862 223.542 153.778 227.136 148.715C230.892 143.652 233.669 137.935 235.466 131.565C237.426 125.032 238.406 118.417 238.406 111.72C238.406 105.023 237.426 98.49 235.466 92.12C233.669 85.5867 230.892 79.7883 227.136 74.725C223.542 69.6617 218.969 65.5783 213.416 62.475C207.862 59.3717 201.411 57.82 194.061 57.82ZM194.061 44.835C203.697 44.835 212.191 46.6317 219.541 50.225C227.054 53.8183 233.342 58.6367 238.406 64.68C243.469 70.7233 247.307 77.8283 249.921 85.995C252.534 93.9983 253.841 102.573 253.841 111.72C253.841 120.867 252.534 129.523 249.921 137.69C247.307 145.693 243.469 152.717 238.406 158.76C233.342 164.803 227.054 169.622 219.541 173.215C212.191 176.645 203.697 178.36 194.061 178.36C184.424 178.36 175.849 176.645 168.336 173.215C160.986 169.622 154.779 164.803 149.716 158.76C144.652 152.717 140.814 145.693 138.201 137.69C135.587 129.523 134.281 120.867 134.281 111.72C134.281 102.573 135.587 93.9983 138.201 85.995C140.814 77.8283 144.652 70.7233 149.716 64.68C154.779 58.6367 160.986 53.8183 168.336 50.225C175.849 46.6317 184.424 44.835 194.061 44.835ZM269.683 -1.86563e-05H285.118V24.745H269.683V-1.86563e-05ZM269.683 48.51H285.118V174.93H269.683V48.51ZM396.488 88.2C394.365 78.7267 390.445 71.295 384.728 65.905C379.012 60.515 371.008 57.82 360.718 57.82C353.368 57.82 346.917 59.3717 341.363 62.475C335.81 65.5783 331.155 69.6617 327.398 74.725C323.805 79.7883 321.028 85.5867 319.068 92.12C317.272 98.49 316.373 105.023 316.373 111.72C316.373 118.417 317.272 125.032 319.068 131.565C321.028 137.935 323.805 143.652 327.398 148.715C331.155 153.778 335.81 157.862 341.363 160.965C346.917 164.068 353.368 165.62 360.718 165.62C365.455 165.62 369.947 164.722 374.193 162.925C378.44 161.128 382.197 158.678 385.463 155.575C388.73 152.308 391.425 148.47 393.548 144.06C395.672 139.65 396.978 134.832 397.468 129.605H412.903C410.78 144.958 405.145 156.963 395.998 165.62C386.852 174.113 375.092 178.36 360.718 178.36C351.082 178.36 342.507 176.645 334.993 173.215C327.643 169.622 321.437 164.803 316.373 158.76C311.31 152.717 307.472 145.693 304.858 137.69C302.245 129.523 300.938 120.867 300.938 111.72C300.938 102.573 302.245 93.9983 304.858 85.995C307.472 77.8283 311.31 70.7233 316.373 64.68C321.437 58.6367 327.643 53.8183 334.993 50.225C342.507 46.6317 351.082 44.835 360.718 44.835C374.275 44.835 385.708 48.4283 395.018 55.615C404.492 62.8017 410.127 73.6633 411.923 88.2H396.488ZM517.899 102.9C517.736 97.02 516.674 91.385 514.714 85.995C512.917 80.605 510.304 75.8683 506.874 71.785C503.444 67.5383 499.279 64.19 494.379 61.74C489.479 59.1267 483.926 57.82 477.719 57.82C471.349 57.82 465.714 59.1267 460.814 61.74C455.914 64.19 451.749 67.5383 448.319 71.785C444.889 75.8683 442.112 80.6867 439.989 86.24C438.029 91.63 436.722 97.1833 436.069 102.9H517.899ZM436.069 115.885C436.069 121.438 436.804 127.237 438.274 133.28C439.907 139.16 442.439 144.468 445.869 149.205C449.299 153.942 453.627 157.862 458.854 160.965C464.081 164.068 470.369 165.62 477.719 165.62C488.989 165.62 497.809 162.68 504.179 156.8C510.549 150.92 514.959 143.08 517.409 133.28H532.844C529.577 147.653 523.534 158.76 514.714 166.6C506.057 174.44 493.726 178.36 477.719 178.36C467.756 178.36 459.099 176.645 451.749 173.215C444.562 169.622 438.682 164.803 434.109 158.76C429.536 152.553 426.106 145.448 423.819 137.445C421.696 129.278 420.634 120.703 420.634 111.72C420.634 103.39 421.696 95.2233 423.819 87.22C426.106 79.2167 429.536 72.1117 434.109 65.905C438.682 59.535 444.562 54.4717 451.749 50.715C459.099 46.795 467.756 44.835 477.719 44.835C487.846 44.835 496.502 46.8767 503.689 50.96C510.876 55.0433 516.674 60.4333 521.084 67.13C525.657 73.6633 528.924 81.2583 530.884 89.915C532.844 98.4083 533.661 107.065 533.334 115.885H436.069ZM622.405 85.505C622.242 80.7683 621.262 76.685 619.465 73.255C617.668 69.6617 615.218 66.7217 612.115 64.435C609.175 62.1483 605.745 60.515 601.825 59.535C597.905 58.3917 593.74 57.82 589.33 57.82C585.9 57.82 582.388 58.2283 578.795 59.045C575.365 59.6983 572.18 60.9233 569.24 62.72C566.3 64.3533 563.932 66.5583 562.135 69.335C560.338 72.1117 559.44 75.5417 559.44 79.625C559.44 83.055 560.257 85.995 561.89 88.445C563.687 90.7317 565.892 92.6917 568.505 94.325C571.118 95.9583 573.977 97.3467 577.08 98.49C580.183 99.47 583.042 100.287 585.655 100.94L606.235 105.595C610.645 106.248 614.973 107.473 619.22 109.27C623.63 110.903 627.468 113.108 630.735 115.885C634.165 118.662 636.942 122.092 639.065 126.175C641.188 130.258 642.25 135.077 642.25 140.63C642.25 147.49 640.698 153.37 637.595 158.27C634.492 163.007 630.49 166.927 625.59 170.03C620.853 172.97 615.463 175.093 609.42 176.4C603.377 177.707 597.415 178.36 591.535 178.36C576.672 178.36 564.585 174.848 555.275 167.825C546.128 160.802 540.902 149.532 539.595 134.015H555.03C555.683 144.468 559.44 152.39 566.3 157.78C573.323 163.007 581.98 165.62 592.27 165.62C596.027 165.62 599.865 165.212 603.785 164.395C607.868 163.578 611.625 162.19 615.055 160.23C618.485 158.27 621.262 155.82 623.385 152.88C625.672 149.777 626.815 146.02 626.815 141.61C626.815 137.853 625.998 134.75 624.365 132.3C622.895 129.687 620.853 127.563 618.24 125.93C615.627 124.133 612.605 122.663 609.175 121.52C605.908 120.377 602.56 119.397 599.13 118.58L579.285 114.17C574.222 112.863 569.567 111.393 565.32 109.76C561.073 107.963 557.317 105.84 554.05 103.39C550.947 100.777 548.497 97.6733 546.7 94.08C544.903 90.3233 544.005 85.75 544.005 80.36C544.005 73.99 545.393 68.5183 548.17 63.945C551.11 59.3717 554.867 55.6967 559.44 52.92C564.013 50.1433 569.077 48.1017 574.63 46.795C580.347 45.4883 585.982 44.835 591.535 44.835C597.905 44.835 603.785 45.6517 609.175 47.285C614.728 48.9183 619.547 51.45 623.63 54.88C627.877 58.31 631.225 62.5567 633.675 67.62C636.125 72.6833 637.513 78.645 637.84 85.505H622.405ZM771.553 57.82C764.203 57.82 757.751 59.3717 752.198 62.475C746.644 65.5783 741.989 69.6617 738.233 74.725C734.639 79.7883 731.863 85.5867 729.903 92.12C728.106 98.49 727.208 105.023 727.208 111.72C727.208 118.417 728.106 125.032 729.903 131.565C731.863 137.935 734.639 143.652 738.233 148.715C741.989 153.778 746.644 157.862 752.198 160.965C757.751 164.068 764.203 165.62 771.553 165.62C778.903 165.62 785.354 164.068 790.908 160.965C796.461 157.862 801.034 153.778 804.628 148.715C808.384 143.652 811.161 137.935 812.958 131.565C814.918 125.032 815.898 118.417 815.898 111.72C815.898 105.023 814.918 98.49 812.958 92.12C811.161 85.5867 808.384 79.7883 804.628 74.725C801.034 69.6617 796.461 65.5783 790.908 62.475C785.354 59.3717 778.903 57.82 771.553 57.82ZM771.553 44.835C781.189 44.835 789.683 46.6317 797.033 50.225C804.546 53.8183 810.834 58.6367 815.898 64.68C820.961 70.7233 824.799 77.8283 827.413 85.995C830.026 93.9983 831.333 102.573 831.333 111.72C831.333 120.867 830.026 129.523 827.413 137.69C824.799 145.693 820.961 152.717 815.898 158.76C810.834 164.803 804.546 169.622 797.033 173.215C789.683 176.645 781.189 178.36 771.553 178.36C761.916 178.36 753.341 176.645 745.828 173.215C738.478 169.622 732.271 164.803 727.208 158.76C722.144 152.717 718.306 145.693 715.693 137.69C713.079 129.523 711.773 120.867 711.773 111.72C711.773 102.573 713.079 93.9983 715.693 85.995C718.306 77.8283 722.144 70.7233 727.208 64.68C732.271 58.6367 738.478 53.8183 745.828 50.225C753.341 46.6317 761.916 44.835 771.553 44.835ZM895.685 61.495H870.695V174.93H855.26V61.495H833.7V48.51H855.26V36.995C855.26 31.605 855.669 26.6233 856.485 22.05C857.302 17.4767 858.854 13.5567 861.14 10.29C863.427 7.02332 866.53 4.49165 870.45 2.69499C874.534 0.898318 879.679 -1.86563e-05 885.885 -1.86563e-05C888.172 -1.86563e-05 890.295 0.081647 892.255 0.244978C894.215 0.408319 896.42 0.653321 898.87 0.979983V14.21C896.747 13.8833 894.787 13.6383 892.99 13.475C891.194 13.1483 889.397 12.985 887.6 12.985C883.354 12.985 880.087 13.6383 877.8 14.945C875.514 16.2516 873.799 18.0483 872.655 20.335C871.675 22.4583 871.104 24.99 870.94 27.93C870.777 30.87 870.695 34.055 870.695 37.485V48.51H895.685V61.495ZM988.322 48.51H1014.05V61.495H988.322V146.755C988.322 151.818 988.975 155.82 990.282 158.76C991.752 161.537 995.264 163.088 1000.82 163.415C1005.23 163.415 1009.64 163.17 1014.05 162.68V175.665C1011.76 175.665 1009.47 175.747 1007.19 175.91C1004.9 176.073 1002.61 176.155 1000.33 176.155C990.037 176.155 982.85 174.195 978.767 170.275C974.684 166.192 972.724 158.76 972.887 147.98V61.495H950.837V48.51H972.887V10.535H988.322V48.51ZM1028.72 -1.86563e-05H1044.16V70.315H1044.65C1047.59 62.6383 1052.81 56.5133 1060.33 51.94C1067.84 47.2033 1076.09 44.835 1085.07 44.835C1093.89 44.835 1101.24 45.9783 1107.12 48.265C1113.17 50.5517 1117.98 53.8183 1121.58 58.065C1125.17 62.1483 1127.7 67.2117 1129.17 73.255C1130.64 79.2983 1131.38 86.0767 1131.38 93.59V174.93H1115.94V96.04C1115.94 90.65 1115.45 85.6683 1114.47 81.095C1113.49 76.3583 1111.78 72.275 1109.33 68.845C1106.88 65.415 1103.53 62.72 1099.28 60.76C1095.2 58.8 1090.05 57.82 1083.85 57.82C1077.64 57.82 1072.09 58.9633 1067.19 61.25C1062.45 63.3733 1058.37 66.395 1054.94 70.315C1051.67 74.0717 1049.06 78.645 1047.1 84.035C1045.3 89.2617 1044.32 94.9783 1044.16 101.185V174.93H1028.72V-1.86563e-05ZM1244.1 102.9C1243.94 97.02 1242.88 91.385 1240.92 85.995C1239.12 80.605 1236.51 75.8683 1233.08 71.785C1229.65 67.5383 1225.48 64.19 1220.58 61.74C1215.68 59.1267 1210.13 57.82 1203.92 57.82C1197.55 57.82 1191.92 59.1267 1187.02 61.74C1182.12 64.19 1177.95 67.5383 1174.52 71.785C1171.09 75.8683 1168.32 80.6867 1166.19 86.24C1164.23 91.63 1162.93 97.1833 1162.27 102.9H1244.1ZM1162.27 115.885C1162.27 121.438 1163.01 127.237 1164.48 133.28C1166.11 139.16 1168.64 144.468 1172.07 149.205C1175.5 153.942 1179.83 157.862 1185.06 160.965C1190.29 164.068 1196.57 165.62 1203.92 165.62C1215.19 165.62 1224.01 162.68 1230.38 156.8C1236.75 150.92 1241.16 143.08 1243.61 133.28H1259.05C1255.78 147.653 1249.74 158.76 1240.92 166.6C1232.26 174.44 1219.93 178.36 1203.92 178.36C1193.96 178.36 1185.3 176.645 1177.95 173.215C1170.77 169.622 1164.89 164.803 1160.31 158.76C1155.74 152.553 1152.31 145.448 1150.02 137.445C1147.9 129.278 1146.84 120.703 1146.84 111.72C1146.84 103.39 1147.9 95.2233 1150.02 87.22C1152.31 79.2167 1155.74 72.1117 1160.31 65.905C1164.89 59.535 1170.77 54.4717 1177.95 50.715C1185.3 46.795 1193.96 44.835 1203.92 44.835C1214.05 44.835 1222.71 46.8767 1229.89 50.96C1237.08 55.0433 1242.88 60.4333 1247.29 67.13C1251.86 73.6633 1255.13 81.2583 1257.09 89.915C1259.05 98.4083 1259.87 107.065 1259.54 115.885H1162.27ZM1319.04 -1.86563e-05H1336.93L1376.62 153.125H1377.11L1419.74 -1.86563e-05H1440.56L1483.44 153.125H1483.93L1523.86 -1.86563e-05H1540.52L1492.26 174.93H1474.62L1430.27 18.375H1429.78L1385.68 174.93H1367.55L1319.04 -1.86563e-05ZM1597.77 57.82C1590.42 57.82 1583.97 59.3717 1578.41 62.475C1572.86 65.5783 1568.2 69.6617 1564.45 74.725C1560.85 79.7883 1558.08 85.5867 1556.12 92.12C1554.32 98.49 1553.42 105.023 1553.42 111.72C1553.42 118.417 1554.32 125.032 1556.12 131.565C1558.08 137.935 1560.85 143.652 1564.45 148.715C1568.2 153.778 1572.86 157.862 1578.41 160.965C1583.97 164.068 1590.42 165.62 1597.77 165.62C1605.12 165.62 1611.57 164.068 1617.12 160.965C1622.68 157.862 1627.25 153.778 1630.84 148.715C1634.6 143.652 1637.38 137.935 1639.17 131.565C1641.13 125.032 1642.11 118.417 1642.11 111.72C1642.11 105.023 1641.13 98.49 1639.17 92.12C1637.38 85.5867 1634.6 79.7883 1630.84 74.725C1627.25 69.6617 1622.68 65.5783 1617.12 62.475C1611.57 59.3717 1605.12 57.82 1597.77 57.82ZM1597.77 44.835C1607.4 44.835 1615.9 46.6317 1623.25 50.225C1630.76 53.8183 1637.05 58.6367 1642.11 64.68C1647.18 70.7233 1651.01 77.8283 1653.63 85.995C1656.24 93.9983 1657.55 102.573 1657.55 111.72C1657.55 120.867 1656.24 129.523 1653.63 137.69C1651.01 145.693 1647.18 152.717 1642.11 158.76C1637.05 164.803 1630.76 169.622 1623.25 173.215C1615.9 176.645 1607.4 178.36 1597.77 178.36C1588.13 178.36 1579.56 176.645 1572.04 173.215C1564.69 169.622 1558.49 164.803 1553.42 158.76C1548.36 152.717 1544.52 145.693 1541.91 137.69C1539.29 129.523 1537.99 120.867 1537.99 111.72C1537.99 102.573 1539.29 93.9983 1541.91 85.995C1544.52 77.8283 1548.36 70.7233 1553.42 64.68C1558.49 58.6367 1564.69 53.8183 1572.04 50.225C1579.56 46.6317 1588.13 44.835 1597.77 44.835ZM1673.14 48.51H1687.35V78.155H1687.84C1691.76 67.865 1697.81 59.9433 1705.97 54.39C1714.3 48.8367 1724.19 46.305 1735.62 46.795V62.23C1728.6 61.9033 1722.23 62.8833 1716.51 65.17C1710.79 67.2933 1705.81 70.3967 1701.56 74.48C1697.48 78.5633 1694.3 83.4633 1692.01 89.18C1689.72 94.7333 1688.58 100.858 1688.58 107.555V174.93H1673.14V48.51ZM1743.32 -1.86563e-05H1758.76V174.93H1743.32V-1.86563e-05ZM1892.17 174.93H1877.96V150.92H1877.47C1875.84 155.003 1873.39 158.76 1870.12 162.19C1867.02 165.62 1863.43 168.56 1859.34 171.01C1855.26 173.297 1850.85 175.093 1846.11 176.4C1841.54 177.707 1836.97 178.36 1832.39 178.36C1822.76 178.36 1814.35 176.645 1807.16 173.215C1800.14 169.622 1794.26 164.803 1789.52 158.76C1784.78 152.553 1781.27 145.448 1778.98 137.445C1776.7 129.278 1775.55 120.703 1775.55 111.72C1775.55 102.737 1776.7 94.2433 1778.98 86.24C1781.27 78.0733 1784.78 70.9683 1789.52 64.925C1794.26 58.7183 1800.14 53.8183 1807.16 50.225C1814.35 46.6317 1822.76 44.835 1832.39 44.835C1837.13 44.835 1841.7 45.4067 1846.11 46.55C1850.69 47.6933 1854.93 49.49 1858.85 51.94C1862.77 54.2267 1866.2 57.085 1869.14 60.515C1872.25 63.945 1874.62 67.9467 1876.25 72.52H1876.74V-1.86563e-05H1892.17V174.93ZM1790.99 111.72C1790.99 118.253 1791.72 124.787 1793.19 131.32C1794.83 137.69 1797.28 143.407 1800.54 148.47C1803.97 153.533 1808.3 157.698 1813.53 160.965C1818.76 164.068 1825.04 165.62 1832.39 165.62C1840.56 165.62 1847.42 164.068 1852.97 160.965C1858.69 157.698 1863.26 153.533 1866.69 148.47C1870.29 143.407 1872.82 137.69 1874.29 131.32C1875.92 124.787 1876.74 118.253 1876.74 111.72C1876.74 105.187 1875.92 98.735 1874.29 92.365C1872.82 85.8317 1870.29 80.0333 1866.69 74.97C1863.26 69.9067 1858.69 65.8233 1852.97 62.72C1847.42 59.4533 1840.56 57.82 1832.39 57.82C1825.04 57.82 1818.76 59.4533 1813.53 62.72C1808.3 65.8233 1803.97 69.9067 1800.54 74.97C1797.28 80.0333 1794.83 85.8317 1793.19 92.365C1791.72 98.735 1790.99 105.187 1790.99 111.72Z" fill="white"/>
<defs>
<linearGradient id="paint0_linear_1_1838" x1="141.167" y1="45.3428" x2="1281.71" y2="318.741" gradientUnits="userSpaceOnUse">
<stop stop-color="#002944"/>
<stop offset="0.965448" stop-color="#4482A9"/>
</linearGradient>
</defs>
</svg>
