<svg width="20" height="28" viewBox="0 0 20 28" fill="none" xmlns="http://www.w3.org/2000/svg">
<path d="M9.52 27.2C12.0449 27.2 14.4663 26.197 16.2517 24.4117C18.037 22.6263 19.04 20.2049 19.04 17.68V9.52C19.04 6.99514 18.037 4.57369 16.2517 2.78834C14.4663 1.003 12.0449 0 9.52 0C6.99514 0 4.57369 1.003 2.78834 2.78834C1.003 4.57369 0 6.99514 0 9.52V17.68C0 20.2049 1.003 22.6263 2.78834 24.4117C4.57369 26.197 6.99514 27.2 9.52 27.2ZM1.36 9.52C1.36 7.35583 2.21971 5.28031 3.75001 3.75001C5.28031 2.21971 7.35583 1.36 9.52 1.36C11.6842 1.36 13.7597 2.21971 15.29 3.75001C16.8203 5.28031 17.68 7.35583 17.68 9.52V17.68C17.68 19.8442 16.8203 21.9197 15.29 23.45C13.7597 24.9803 11.6842 25.84 9.52 25.84C7.35583 25.84 5.28031 24.9803 3.75001 23.45C2.21971 21.9197 1.36 19.8442 1.36 17.68V9.52Z" fill="#346D90"/>
<path d="M8.83983 13.26H8.90103L9.03703 13.4028C9.10025 13.4665 9.17545 13.5171 9.25832 13.5516C9.34118 13.5861 9.43006 13.6039 9.51983 13.6039C9.6096 13.6039 9.69848 13.5861 9.78134 13.5516C9.86421 13.5171 9.93942 13.4665 10.0026 13.4028L10.1386 13.26H10.1998V13.1988L14.0826 9.32275L13.117 8.35716L10.1998 11.2812V4.07996H8.83983V11.2812L5.92263 8.35716L4.95703 9.32275L8.83983 13.1988V13.26Z" fill="#346D90"/>
</svg>
