<svg width="22" height="21" viewBox="0 0 22 21" fill="none" xmlns="http://www.w3.org/2000/svg">
<path d="M9.11329 1.04245C9.87128 -0.347434 11.867 -0.347433 12.625 1.04245L14.6202 4.70087C14.9078 5.22833 15.4174 5.59852 16.0079 5.70911L20.1038 6.47613C21.6599 6.76753 22.2766 8.66557 21.189 9.81597L18.3262 12.844C17.9134 13.2806 17.7188 13.8796 17.7961 14.4754L18.3323 18.6079C18.5361 20.1778 16.9215 21.3509 15.4913 20.672L11.7268 18.885C11.184 18.6274 10.5542 18.6274 10.0115 18.885L6.24697 20.672C4.81679 21.3509 3.20222 20.1778 3.40594 18.6079L3.94216 14.4754C4.01948 13.8796 3.82485 13.2806 3.4121 12.844L0.549284 9.81597C-0.538338 8.66557 0.078371 6.76753 1.63446 6.47613L5.73038 5.70911C6.32091 5.59852 6.83044 5.22832 7.1181 4.70087L9.11329 1.04245Z" fill="#002944"/>
</svg>
