<svg width="200" height="57" viewBox="0 0 200 57" fill="none" xmlns="http://www.w3.org/2000/svg">
<path d="M84.9977 15.8121V22.4058C84.9977 23.11 84.8689 23.7502 84.5469 24.3263C84.225 24.9025 83.7743 25.3506 83.1303 25.6707C82.4864 25.9908 81.7138 26.1828 80.7479 26.1828C79.3957 26.1828 78.3654 25.8627 77.6571 25.1586C76.9488 24.4544 76.5625 23.5581 76.5625 22.4058V15.8121H78.7518V22.0857C78.7518 22.918 78.945 23.5581 79.2669 23.8782C79.5889 24.1983 80.104 24.3904 80.8123 24.3904C81.5206 24.3904 82.0357 24.1983 82.3577 23.8142C82.6796 23.4301 82.8728 22.8539 82.8728 22.0857V15.8121H84.9977Z" fill="#009EDB"/>
<path d="M95.9403 26.0547H93.1715L88.6642 18.3087H88.5998C88.5998 18.8208 88.6642 19.2689 88.6642 19.7811C88.6642 20.2932 88.7286 20.7413 88.7286 21.2535V26.0547H86.7969V15.812H89.5657L94.0086 23.4941H94.073C94.073 23.0459 94.0086 22.5338 94.0086 22.0857C94.0086 21.6376 93.9442 21.1254 93.9442 20.6773V15.812H95.8759L95.9403 26.0547Z" fill="#009EDB"/>
<path d="M102.38 26.0548H97.6797V24.8385L98.9031 24.2623V17.6045L97.6797 17.0284V15.8121H102.38V17.0284L101.157 17.6045V24.1983L102.38 24.7745V26.0548Z" fill="#009EDB"/>
<path d="M108.821 26.0548H106.632V17.6045H103.863V15.8121H111.655V17.6045H108.886V26.0548H108.821Z" fill="#009EDB"/>
<path d="M119.127 26.0548H113.203V15.8121H119.127V17.6045H115.392V19.8451H118.87V21.6376H115.392V24.2623H119.127V26.0548Z" fill="#009EDB"/>
<path d="M129.687 20.8054C129.687 22.5339 129.172 23.8142 128.206 24.7104C127.24 25.6067 125.824 25.9908 124.085 25.9908H121.188V15.748H124.407C125.502 15.748 126.403 15.9401 127.24 16.3242C128.013 16.7083 128.657 17.2845 129.108 17.9886C129.558 18.6928 129.687 19.7171 129.687 20.8054ZM127.433 20.8694C127.433 19.7171 127.176 18.8849 126.661 18.3727C126.146 17.8606 125.437 17.6045 124.471 17.6045H123.312V24.2623H124.214C126.339 24.2623 127.433 23.11 127.433 20.8694Z" fill="#009EDB"/>
<path d="M144.686 26.0547H141.918L137.41 18.3087H137.346C137.346 18.8208 137.41 19.2689 137.41 19.7811C137.41 20.2932 137.475 20.7413 137.475 21.2535V26.0547H135.543V15.812H138.312L142.755 23.4941H142.819C142.819 23.0459 142.755 22.5338 142.755 22.0857C142.755 21.6376 142.69 21.1254 142.69 20.6773V15.812H144.622L144.686 26.0547Z" fill="#009EDB"/>
<path d="M153.575 26.0548L152.802 23.6222H149.067L148.295 26.0548H145.977L149.582 15.8121H152.222L155.893 26.0548H153.575ZM152.287 21.7657L151.514 19.397C151.45 19.269 151.385 19.0129 151.321 18.7569C151.257 18.5008 151.192 18.2447 151.063 17.9887C150.999 17.7326 150.935 17.4765 150.87 17.3485C150.806 17.5405 150.741 17.7966 150.677 18.0527C150.613 18.3087 150.548 18.6288 150.42 18.8209C150.355 19.0769 150.291 19.269 150.226 19.333L149.518 21.7016C149.582 21.7657 152.287 21.7657 152.287 21.7657Z" fill="#009EDB"/>
<path d="M160.142 26.0548H157.952V17.6045H155.184V15.8121H162.975V17.6045H160.206V26.0548H160.142Z" fill="#009EDB"/>
<path d="M169.091 26.0547H164.391V24.8384L165.678 24.2623V17.6045L164.391 17.0283V15.812H169.091V17.0283L167.803 17.6045V24.1982L169.091 24.7744V26.0547Z" fill="#009EDB"/>
<path d="M180.166 20.9335C180.166 22.0218 179.973 22.918 179.651 23.6862C179.329 24.4544 178.75 25.0946 178.041 25.5427C177.333 25.9908 176.432 26.1829 175.273 26.1829C174.114 26.1829 173.212 25.9908 172.504 25.5427C171.795 25.0946 171.216 24.4544 170.894 23.6862C170.572 22.918 170.379 21.9578 170.379 20.9335C170.379 19.9092 170.572 18.949 170.894 18.1807C171.216 17.4125 171.795 16.7724 172.504 16.3243C173.212 15.8761 174.178 15.6841 175.273 15.6841C176.367 15.6841 177.269 15.8761 178.041 16.3243C178.814 16.7724 179.329 17.3485 179.651 18.1807C179.973 18.949 180.166 19.8452 180.166 20.9335ZM172.697 20.9335C172.697 22.0218 172.89 22.854 173.341 23.4942C173.727 24.1343 174.436 24.3904 175.337 24.3904C176.303 24.3904 176.947 24.0703 177.333 23.4942C177.719 22.854 177.913 22.0218 177.913 20.9335C177.913 19.8452 177.719 19.013 177.333 18.3728C176.947 17.7326 176.238 17.4766 175.337 17.4766C174.436 17.4766 173.727 17.7966 173.341 18.3728C172.89 19.013 172.697 19.8452 172.697 20.9335Z" fill="#009EDB"/>
<path d="M191.112 26.0548H188.343L183.836 18.3087H183.772C183.772 18.8209 183.836 19.269 183.836 19.7811C183.836 20.2933 183.9 20.7414 183.9 21.2535V26.0548H181.969V15.8121H184.738L189.18 23.4941H189.245C189.245 23.046 189.18 22.5339 189.18 22.0857C189.18 21.6376 189.181 21.1255 189.116 20.6774V15.8121H191.048L191.112 26.0548Z" fill="#009EDB"/>
<path d="M199.74 23.1741C199.74 24.0703 199.418 24.7745 198.774 25.3507C198.13 25.9268 197.164 26.1829 195.941 26.1829C194.846 26.1829 193.88 25.9908 193.043 25.5427V23.4942C193.558 23.6862 194.009 23.8783 194.588 24.0703C195.168 24.2624 195.619 24.3264 196.134 24.3264C196.649 24.3264 197.035 24.1983 197.293 24.0063C197.55 23.8142 197.615 23.5582 197.615 23.2381C197.615 22.982 197.55 22.726 197.357 22.5979C197.164 22.4059 196.971 22.2778 196.649 22.0858C196.327 21.9578 196.005 21.7657 195.619 21.5737C195.361 21.4456 195.103 21.3176 194.846 21.1895C194.588 21.0615 194.266 20.8695 194.073 20.6134C193.816 20.3573 193.622 20.1013 193.429 19.7812C193.236 19.4611 193.172 19.077 193.172 18.5648C193.172 17.6686 193.494 16.9644 194.138 16.4523C194.782 15.9402 195.619 15.6841 196.713 15.6841C197.228 15.6841 197.743 15.7481 198.259 15.8761C198.774 16.0042 199.224 16.1962 199.804 16.3883L199.096 18.0527C198.645 17.8607 198.194 17.7326 197.808 17.6046C197.422 17.4766 197.035 17.4766 196.649 17.4766C196.263 17.4766 195.941 17.5406 195.683 17.7966C195.49 17.9887 195.361 18.2448 195.361 18.5648C195.361 18.949 195.49 19.205 195.876 19.3971C196.263 19.5891 196.713 19.8452 197.357 20.1653C197.872 20.4213 198.323 20.6774 198.709 20.9335C199.096 21.1895 199.353 21.5096 199.546 21.8937C199.611 22.2138 199.74 22.6619 199.74 23.1741Z" fill="#009EDB"/>
<path d="M81.6475 36.1056H85.189V41.099C84.6094 41.291 84.0943 41.4191 83.5148 41.4831C82.9353 41.5471 82.2914 41.6111 81.5831 41.6111C80.4884 41.6111 79.587 41.419 78.8787 40.9709C78.1704 40.5228 77.5909 39.9467 77.2045 39.1785C76.8182 38.4102 76.625 37.45 76.625 36.3617C76.625 35.2734 76.8182 34.3772 77.2689 33.609C77.7196 32.8408 78.2992 32.2006 79.0718 31.7525C79.8445 31.3044 80.8104 31.1123 81.9694 31.1123C82.5489 31.1123 83.0641 31.1763 83.5792 31.2403C84.0943 31.3684 84.545 31.4964 84.9958 31.6885L84.4807 32.8408C84.0943 32.7127 83.708 32.5207 83.2572 32.4567C82.8065 32.3926 82.3558 32.2646 81.8406 32.2646C80.6172 32.2646 79.6514 32.6487 78.9431 33.3529C78.2348 34.1211 77.9128 35.0814 77.9128 36.3617C77.9128 37.1939 78.0416 37.8981 78.2992 38.5383C78.5567 39.1785 79.0075 39.6266 79.5226 40.0107C80.1021 40.3308 80.8104 40.5228 81.7763 40.5228C82.227 40.5228 82.6133 40.5228 82.9353 40.4588C83.2572 40.3948 83.5148 40.3308 83.7724 40.2667V37.2579H81.5187L81.6475 36.1056Z" fill="#009EDB"/>
<path d="M93.3011 41.483H87.5703V31.2402H93.3011V32.3925H88.8581V35.5934H93.0435V36.6817H88.8581V40.3307H93.3011V41.483Z" fill="#009EDB"/>
<path d="M103.474 41.4831H101.929L96.4559 32.9688H96.3915C96.3915 33.2889 96.4559 33.737 96.4559 34.2491C96.4559 34.7613 96.5203 35.2734 96.5203 35.7856V41.4831H95.2969V31.2403H96.7779L102.251 39.6906H102.315C102.315 39.5626 102.315 39.3065 102.251 38.9864C102.251 38.6663 102.251 38.3462 102.187 37.9621C102.187 37.578 102.187 37.2579 102.187 36.9379V31.1763H103.41L103.474 41.4831Z" fill="#009EDB"/>
<path d="M111.848 41.483H106.117V31.2402H111.848V32.3925H107.405V35.5934H111.59V36.6817H107.405V40.3307H111.848V41.483Z" fill="#009EDB"/>
<path d="M121.699 31.2403L118.028 41.4831H116.741L113.07 31.2403H114.423L116.741 37.7701C116.869 38.2182 116.998 38.6023 117.127 38.9224C117.256 39.3065 117.32 39.6266 117.384 39.9467C117.449 39.6266 117.513 39.2425 117.642 38.8584C117.771 38.4743 117.9 38.0902 118.028 37.642L120.346 31.1123C120.282 31.2403 121.699 31.2403 121.699 31.2403Z" fill="#009EDB"/>
<path d="M128.846 41.483L127.623 38.3461H123.566L122.343 41.483H121.055L125.047 31.2402H126.206L130.198 41.483H128.846ZM127.236 37.1938L126.077 34.121C126.077 34.057 126.013 33.9289 125.948 33.6729C125.884 33.4168 125.82 33.2888 125.755 33.0327C125.691 32.8407 125.626 32.6486 125.626 32.5206C125.562 32.8407 125.498 33.0967 125.369 33.3528C125.304 33.6089 125.24 33.8649 125.176 33.993L124.017 37.0658C123.952 37.1938 127.236 37.1938 127.236 37.1938Z" fill="#009EDB"/>
<path d="M7.46931 27.3993C8.37078 29.5759 8.49956 30.9843 8.88591 34.4412C9.27225 38.3463 9.46542 39.9467 10.5601 41.9952L4.70052 38.1542C2.70441 37.0019 0 33.0328 0 29.4479C0 28.8717 0.0643907 28.4236 0.128781 27.9755C0.772688 32.3927 4.31417 33.2249 7.92005 38.9864L7.98444 38.9224C7.34053 37.7701 6.50346 35.6575 6.50346 34.4412C6.50346 32.2646 7.40492 30.9843 7.40492 27.4634C7.34053 27.3993 7.46931 27.3993 7.46931 27.3993ZM1.03025 18.2449C1.03025 19.2052 0.96586 19.6533 0.96586 20.6776C0.96586 22.6621 3.47709 26.5671 4.44295 31.1123H4.50734C4.50734 30.9843 4.121 29.4479 4.121 28.8077C4.121 24.9667 7.14736 22.534 7.72688 19.8453H7.79127C8.11322 23.5583 5.40881 30.2161 5.40881 31.9446C5.40881 32.5847 5.40881 33.4169 5.4732 34.3132C2.83319 30.024 0 28.9998 0 22.7901C0 21.3817 0.643906 19.0771 1.03025 18.2449ZM3.99222 22.0219C4.37856 20.1654 4.70052 18.757 6.82541 16.8365C9.14347 14.788 9.40103 14.4679 9.91616 13.4436H9.98055C9.85177 14.4039 9.07908 16.9005 8.11322 18.437C4.50735 23.4303 4.05661 24.0064 3.86344 25.9269H3.79905C3.09075 22.534 1.67416 19.9734 1.67416 17.2206C1.67416 14.788 2.31806 12.4194 4.50734 9.6026H4.57174C4.24978 10.3708 3.67027 11.3951 3.67027 12.4194C3.67027 15.6842 3.99222 17.6687 3.99222 19.2692C3.99222 20.5495 3.92783 21.2537 3.86344 22.0219H3.99222ZM15.325 46.9245L12.0411 46.2203C7.85566 45.3881 3.34831 42.0592 2.18928 36.8739L2.25367 36.8098C3.4127 39.3705 5.4732 40.5869 9.52981 42.5074C11.5259 43.4676 13.522 45.3241 14.2947 45.5802L14.3591 45.5162C12.5562 43.9798 11.4615 42.5074 11.1396 40.7149C10.6888 38.3463 9.98055 35.0814 9.6586 34.0571L9.72299 33.9931C11.7835 36.8739 12.2986 37.7061 13.0069 39.5626C14.1016 42.3793 14.6811 44.0438 15.3894 45.1321L15.325 46.9245ZM9.6586 5.4415C7.14736 7.42602 7.85566 9.34654 5.85955 14.724V14.788C7.98444 10.5629 11.3971 10.8189 12.8137 7.42602H12.8781C11.7191 11.203 11.5259 11.5231 9.85177 12.9315C7.5337 14.916 5.85955 16.0043 4.8293 17.7968V12.2913C4.8293 9.09047 6.82541 6.08167 9.6586 5.4415ZM15.325 50.3815C10.6888 49.8053 8.242 46.9886 7.21175 45.1961L7.27614 45.1321C9.98055 47.6287 11.7191 47.5647 15.325 47.9488V50.3815ZM16.2264 2.24064C13.4576 4.48124 12.1054 8.19423 7.92005 10.8829C9.98055 2.88081 14.2303 3.77705 16.0977 2.11261L16.2264 2.24064ZM15.325 39.1785C11.7191 34.9534 9.6586 29.5759 9.6586 23.6864C9.6586 17.7968 11.7835 12.2913 15.325 8.25825V10.3708C12.685 13.8277 11.0752 17.9888 10.882 22.47C10.882 22.5981 10.882 22.7901 10.8176 23.0462C10.9464 22.9822 11.204 22.9822 11.3971 22.9822H14.2303C14.2947 22.9822 14.4879 22.9822 14.6167 23.0462C14.5523 22.9181 14.5523 22.7261 14.5523 22.5981C14.4879 21.1257 14.8742 19.5893 15.325 18.1169V32.9688C15.003 32.7128 14.7455 32.3927 14.6167 32.2646H14.5523C14.5523 32.3287 14.4235 32.5207 14.2947 32.5207C13.9728 32.5207 13.844 32.2646 13.3933 31.8165C13.0713 31.9446 13.0069 31.8805 12.9425 31.7525L12.363 30.3441C12.363 30.024 12.4274 28.7437 13.2645 28.7437C13.3933 28.7437 13.3933 28.7437 13.5864 28.8717C13.7152 28.9357 13.9728 28.8077 13.9728 28.4876L14.6167 28.2316L15.003 28.8077C15.0674 28.8717 15.1318 28.9358 15.1318 28.9358C15.0674 28.6157 14.8742 28.2956 14.8098 27.7834C14.6811 27.0152 14.4235 25.2228 14.4235 24.6466C14.4235 24.5186 14.4235 24.3265 14.4879 24.1985C14.3591 24.2625 14.1659 24.2625 14.1016 24.2625H11.2684C11.1396 24.2625 11.0108 24.2625 10.8176 24.1985C10.882 24.4546 10.882 24.5186 10.882 24.6466C11.0108 29.2558 12.6206 33.673 15.325 37.0659V39.1785ZM15.325 52.9421C14.3591 52.494 13.4576 51.7898 12.5562 50.8296L12.6206 50.7656C13.7796 51.3417 14.6167 51.7258 15.325 51.8538V52.9421ZM15.325 43.0835C15.1962 42.6994 14.6811 41.9312 14.2303 41.035L14.2947 40.971C14.6167 41.291 15.003 41.4831 15.325 41.9312V43.0835Z" fill="#009EDB"/>
<path d="M33.4863 31.8165C33.3575 31.8165 32.7136 32.2006 32.6492 32.2646C32.6492 32.5207 33.0356 32.5847 33.4863 32.5847V47.4366C26.1458 47.4366 19.6423 44.1077 15.3281 39.1784V37.0019C15.7145 37.578 16.1008 38.0261 16.6159 38.6023C16.7447 38.7303 16.9379 38.9864 16.9379 39.2424C17.0023 38.9864 17.1955 38.7943 17.3242 38.6023L19.0628 36.9378C19.1916 36.8098 19.3847 36.6177 19.6423 36.5537C19.3847 36.4257 19.3203 36.2977 19.1916 36.1696C18.934 35.9136 18.8696 35.8495 18.8052 35.5295H18.6764C18.612 35.4654 18.0969 35.1454 17.9681 35.0813C17.7106 34.8893 17.6462 34.6332 17.453 34.2491C17.3242 34.3772 17.1955 34.3772 17.1311 34.3772C16.7447 34.3772 16.1652 33.929 16.0364 33.2248C15.9076 33.2248 15.4569 33.0968 15.3281 32.9048V18.0528C16.1008 15.5561 17.5174 13.0595 19.3203 11.0749C19.3847 11.0109 19.4491 10.8189 19.7067 10.8189C19.3847 10.6908 19.3203 10.4988 19.256 10.4348L17.3886 8.57828C17.2598 8.45025 17.1311 8.2582 17.1311 8.13017C17.0667 8.38623 17.0023 8.45025 16.8091 8.57828C16.2296 9.21845 15.7145 9.85863 15.3281 10.3708V8.2582C19.7711 3.26487 26.2101 0 33.4863 0V19.5892C32.9068 19.5892 32.7136 19.6532 32.6492 19.7172C32.7136 19.9733 32.778 20.3574 32.778 20.6775C32.778 20.9976 31.6833 21.3817 31.3614 21.4457C31.3614 21.5097 31.297 21.7658 31.2326 21.8938C30.9107 21.9578 30.6531 22.2139 30.5243 22.534V22.7901C30.4599 23.0461 30.3955 23.3662 30.2668 23.6223V24.0064C30.2024 24.0704 30.138 24.1344 29.9448 24.1344C29.816 24.1344 29.816 23.3662 29.4941 23.3662H29.4297L29.3009 23.4943C29.1721 23.4943 28.9789 23.4302 28.8502 23.3662C28.4638 23.7503 28.3994 23.9424 28.4638 24.3265C28.2063 24.3905 28.0131 24.5825 28.0775 24.6466C28.335 24.7106 29.3653 24.5825 29.5585 24.5825C29.6872 24.4545 29.816 24.4545 29.8804 24.4545C30.0092 24.4545 30.138 24.5825 30.138 24.7106C30.2024 24.7106 30.3955 24.6466 30.4599 24.5825C30.7175 24.3265 30.5887 24.1344 30.7819 24.0064C31.0394 23.9424 31.0394 24.2625 31.1682 24.3265C30.7175 25.1587 30.7175 25.2867 30.5887 25.6068C30.5243 25.6708 30.4599 25.6708 30.2024 25.6068V25.5428H30.138C30.0736 25.6708 30.138 25.6708 30.4599 26.119C30.5887 25.9909 30.5887 25.9909 30.7819 25.5428C31.4258 25.2227 31.4258 25.2227 31.4258 24.9026C31.4258 24.3265 31.4902 24.3265 32.5204 24.3265C32.9712 24.3265 33.2287 24.3265 33.2931 24.7106L33.2287 24.8386C33.2287 24.8386 33.3575 24.9666 33.3575 25.1587C33.3575 25.2227 32.9068 25.7989 32.9068 25.7989C32.9068 26.7591 31.8121 26.8231 31.1038 26.8231C31.7477 27.3993 32.7136 27.6554 33.6151 27.6554L33.4863 31.8165ZM15.3281 47.9488C15.4569 47.9488 15.7145 48.0128 15.9076 48.0128C17.9038 48.1408 18.7408 48.2689 21.4452 48.717V48.653C19.9643 48.2048 18.7408 47.6287 18.0325 46.9885C16.9379 46.1563 16.4228 45.004 15.3281 43.0835V41.9312C17.1311 43.4036 18.934 45.132 20.6725 46.7324C22.1535 48.0768 23.5057 48.3969 25.5018 48.845C19.4491 50.3174 18.612 50.5735 17.0023 50.5735C16.3584 50.5735 15.8433 50.5094 15.3281 50.4454C15.3281 50.4454 15.3281 47.9488 15.3281 47.9488ZM15.3281 45.132C15.9076 46.0923 16.3584 46.6684 17.0667 47.3086L15.3281 46.9245V45.132ZM24.6004 55.1827C27.1116 52.43 30.0736 51.0216 32.0697 49.8693C31.8121 49.8053 31.4902 49.7412 31.1038 49.7412C29.4941 49.7412 28.5282 50.4454 26.7897 51.5977C23.377 53.6463 22.2823 54.2224 19.7711 54.2224C18.4189 54.2224 16.8735 53.8383 15.3281 52.9421V51.8538C15.9076 51.9818 16.6803 52.1739 17.3886 52.1739C19.1916 52.1739 20.415 51.7258 23.8921 50.4454C26.7897 49.4212 28.0775 48.909 29.4941 48.909C30.8463 48.909 32.9068 49.4852 33.4863 49.6132V50.3814C31.4258 51.0856 28.2063 53.7103 25.8882 56.399L24.6004 55.1827ZM20.8657 12.0352C20.8013 11.9712 20.5438 11.7151 20.5438 11.5871C20.4794 11.8432 20.415 11.9072 20.2862 12.0352C17.7106 14.7879 16.0364 18.757 15.7789 22.47C15.7789 22.598 15.7789 22.7901 15.7145 23.0461C15.8433 22.9821 15.972 22.9821 16.1008 22.9821H18.8696C18.934 22.9821 19.1272 22.9821 19.256 23.0461C19.1916 22.9181 19.1916 22.7261 19.1916 22.406C19.4491 19.5252 20.6725 16.5804 22.6687 14.4038C22.733 14.3398 22.9262 14.1478 23.055 14.1478C22.9262 14.0838 22.7974 14.0197 22.733 13.8917L20.8657 12.0352ZM16.1008 24.1984C15.8433 24.1984 15.8433 24.1984 15.7145 24.1344C15.7145 24.2625 15.7789 24.3905 15.7789 24.5185C15.8433 25.7989 16.0364 26.8872 16.2296 28.0395C16.294 28.4876 16.3584 28.8077 16.4872 29.0637C16.4872 28.8077 16.5515 28.6796 16.6159 28.6156C16.6803 28.5516 16.9379 28.6156 16.8735 28.4876C16.9379 28.4236 16.8735 28.3596 16.8091 28.1035C17.1311 27.9755 16.8091 27.7194 16.8735 27.4633C16.9379 27.0792 17.1311 26.7591 17.3242 26.5031C17.453 26.5031 17.775 26.375 18.2257 26.119C18.4833 25.9909 18.4833 25.5428 18.8052 25.5428C19.0628 25.5428 19.1272 25.6708 19.4491 26.183C19.3847 25.8629 19.3203 25.7989 19.3203 25.5428C19.256 24.9026 19.256 24.3905 19.3203 24.1344C19.256 24.1344 19.1916 24.1984 18.934 24.1984H16.1008ZM32.778 42.9554C32.778 42.8274 32.778 42.5713 32.8424 42.3793C32.778 42.4433 32.5848 42.4433 32.2629 42.4433C27.8199 42.1872 23.8277 40.4588 20.6082 37.578C20.5438 37.514 20.2862 37.3219 20.2862 37.1939C20.2218 37.45 20.1574 37.578 20.0286 37.642L18.1613 39.4985C18.0325 39.6266 17.8394 39.8186 17.7106 39.8186C17.9681 39.8826 18.0325 39.9466 18.1613 40.1387C21.896 43.5316 26.854 45.7082 32.0697 45.9642C32.3916 45.9642 32.7136 45.9642 32.8424 46.0283C32.778 45.9002 32.778 45.6442 32.778 45.4521V42.9554ZM32.778 1.60043C32.778 1.53641 32.778 1.34436 32.8424 1.21632C32.5848 1.28034 32.5204 1.28034 32.456 1.28034C26.9828 1.66444 22.0248 3.77701 18.2257 7.23393C18.1613 7.29794 17.9681 7.48999 17.8394 7.48999C17.9681 7.55401 18.0969 7.61803 18.2257 7.81008L20.093 9.66657C20.1574 9.73059 20.3506 9.92264 20.415 10.1147C20.4794 9.85862 20.6725 9.73059 20.7369 9.66657C23.9565 6.91384 27.9487 5.2494 32.3916 4.8653C32.456 4.8653 32.5204 4.8653 32.778 4.92931C32.7136 4.67324 32.7136 4.60923 32.7136 4.48119C32.778 4.48119 32.778 1.60043 32.778 1.60043ZM21.2521 22.9181C21.5096 22.9181 21.6384 22.9821 21.7028 22.9821L21.6384 22.2139C21.574 22.0859 21.574 21.6378 21.6384 21.5097C21.7028 21.3817 21.896 21.1896 22.0248 21.1256C22.0891 20.9976 22.0891 20.7415 22.1535 20.5495C22.2823 20.4214 22.5399 20.2294 22.5399 20.2294C23.377 20.1014 23.5057 20.1014 23.3126 19.5892C23.5701 19.4612 23.5701 19.4612 24.1496 19.1411C24.6648 18.5009 24.7935 18.4369 25.5018 18.1168C25.8882 17.5407 26.0814 17.3486 26.2745 17.2206C26.1458 17.2206 25.9526 17.1566 25.8238 16.9645L23.9565 15.172C23.8277 15.044 23.8277 14.916 23.6989 14.7879C23.6345 14.916 23.5701 15.108 23.4413 15.172C21.4452 17.1566 20.3506 21.1256 20.3506 22.2779C20.3506 22.534 20.3506 22.7261 20.2862 22.9181C20.5438 22.8541 20.6082 22.8541 20.6725 22.8541C20.8013 22.9181 21.2521 22.9181 21.2521 22.9181ZM20.8013 24.1984C20.6725 24.1984 20.4794 24.1344 20.415 24.1344C20.415 24.1984 20.4794 24.3905 20.4794 24.6466C20.4794 24.7746 20.5438 25.7989 20.5438 26.119C20.5438 26.375 20.4794 26.439 20.4794 26.5671C20.8013 26.119 21.0589 26.311 21.0589 25.9909C21.0589 25.8629 20.9301 25.6068 20.9301 25.3507C20.9301 25.2227 21.1877 24.9666 21.2521 24.7106C21.3165 24.5825 21.3165 24.3905 21.3165 24.2625C21.574 24.1984 21.7028 24.1344 21.7672 24.0064C21.6384 24.0064 21.5096 24.0704 21.1877 24.0704H20.8013V24.1984ZM32.778 38.3462C32.778 38.2182 32.778 37.9621 32.8424 37.8981C32.7136 37.9621 32.5204 37.9621 32.2629 37.9621C28.9145 37.578 25.8882 36.1696 23.6345 34.1211C24.3428 35.0813 24.4716 35.0813 24.4716 35.1454C24.4716 35.4014 25.0511 35.5935 25.0511 35.9136C25.0511 36.2977 24.6004 36.3617 24.214 36.2977C23.9565 36.4257 23.7633 36.4257 23.5057 36.4257C23.1194 36.6818 22.4755 36.8738 22.1535 36.8738C21.7672 36.8738 21.1233 36.4897 20.7369 36.4257C21.1233 36.5537 21.7672 37.0659 22.0248 37.1939C24.8579 39.5625 28.3994 41.0349 32.1341 41.291C32.3916 41.291 32.7136 41.291 32.8424 41.355C32.778 41.0989 32.778 40.9709 32.778 40.7148V38.3462ZM32.778 6.46572C32.778 6.33769 32.778 6.20965 32.8424 6.08162C32.5848 6.14564 32.5848 6.14564 32.456 6.14564C28.2706 6.46572 24.4716 8.13017 21.6384 10.6908C21.574 10.7549 21.5096 10.8189 21.2521 10.8189C21.3808 10.8189 21.5096 10.9469 21.6384 11.0749L23.6345 13.0595C23.6989 13.1235 23.7633 13.1875 23.8921 13.4436C23.9565 13.1875 24.1496 13.0595 24.214 12.9955C26.3389 11.139 29.1721 9.85862 32.5204 9.53854C32.6492 9.53854 32.6492 9.53854 32.9068 9.60256C32.8424 9.47452 32.8424 9.34649 32.8424 9.21845L32.778 6.46572ZM25.7594 30.3441C25.8238 30.2801 26.017 30.088 26.2101 30.024C25.9526 29.96 25.8238 29.7679 25.7594 29.7039C24.7935 28.4876 24.1496 26.9512 23.9565 25.4788L23.6345 25.5428C23.6345 25.5428 23.6345 25.5428 23.5701 25.4788C23.5057 25.6068 23.3126 26.5671 23.2482 26.6311C23.1194 26.6951 22.9906 26.5031 22.9262 26.247C22.6687 26.247 22.5399 26.119 22.6043 25.9269C22.8618 25.9909 23.055 25.9909 23.055 25.5428C23.055 25.2227 22.9262 25.0947 22.9262 24.8386C22.9262 24.7746 22.9906 24.7746 22.9906 24.7746C23.1194 24.7746 23.3126 25.1587 23.6345 25.1587C24.0209 25.1587 24.214 24.7746 24.2784 24.3905L24.1496 24.3265C24.1496 24.0704 24.214 23.8784 24.214 23.5583C24.214 23.1742 23.9565 22.7261 23.5057 22.7261C23.1838 22.7261 22.7974 22.8541 22.7974 23.1102C22.7974 23.3662 23.1194 24.0704 23.1194 24.1344C23.1194 24.2625 23.055 24.4545 22.8618 24.4545H22.2823C22.2179 24.5185 22.2179 24.5825 22.2179 25.0307C21.4452 25.3507 21.3808 25.3507 21.3808 25.4788V25.5428C21.5096 25.9909 21.5096 25.9909 21.5096 26.5031C22.2179 27.3353 22.3467 27.5913 22.4755 28.5516C22.7331 29.1278 22.7974 29.2558 22.8618 30.6001C22.8618 30.8562 22.9262 30.9202 23.3126 31.5604L23.2482 32.2006C23.2482 32.3286 23.2482 32.3286 22.8618 32.6487C22.7974 32.7767 22.7974 33.0328 22.8618 33.2248L25.7594 30.3441ZM24.9867 32.8407C24.8579 32.9688 24.6648 33.0968 24.536 33.1608C24.6648 33.1608 24.8579 33.2889 24.9867 33.4809C26.4677 34.8893 28.5282 35.9136 30.5887 36.4897C31.2326 36.6177 31.9409 36.8098 32.2629 36.8098C32.0053 36.6818 31.8765 36.5537 31.6833 36.5537L31.2326 36.4257C30.4599 36.1696 30.3955 35.3374 29.8804 34.7613C29.816 34.4412 30.3311 34.4412 30.4599 33.801C30.5243 33.2248 31.2326 33.1608 31.7477 33.0328C31.3614 33.0968 31.1038 33.0968 30.7819 33.0328C29.4297 32.6487 28.335 32.0085 27.2404 31.1763C27.176 31.1123 26.9828 31.0483 26.9828 30.8562C26.9184 30.9843 26.7253 31.1763 26.6609 31.2403L24.9867 32.8407ZM32.778 11.267C32.778 11.139 32.778 10.9469 32.8424 10.8189C32.5848 10.8829 32.456 10.8829 32.2629 10.8829C29.4297 11.139 26.9184 12.2273 24.9867 13.8917C24.8579 14.0197 24.6648 14.1478 24.536 14.2118C24.7935 14.2758 24.8579 14.3398 24.9223 14.4679L26.7897 16.3243C26.854 16.3884 26.9184 16.4524 27.0472 16.6444C27.1116 16.5164 27.176 16.3884 27.3692 16.2603C28.7858 15.108 30.5243 14.4038 32.3273 14.1478C32.5848 14.1478 32.6492 14.1478 32.778 14.2118C32.778 14.1478 32.7136 13.9557 32.7136 13.8277C32.778 13.7637 32.778 11.267 32.778 11.267ZM28.1419 27.9754C28.1419 27.9754 27.8843 26.8231 27.8199 26.8231C27.7555 26.8231 27.8199 27.2713 27.8199 27.3993L27.6911 27.4633C27.6267 27.3353 27.1116 27.0792 27.1116 27.0152C27.0472 26.9512 27.0472 26.8872 27.0472 26.6311L26.7253 26.311C26.5965 26.375 26.5965 26.375 26.4033 26.375C26.2745 25.9909 25.8238 25.7989 25.0511 25.7349C25.1799 25.7989 25.3731 26.183 25.4375 26.5031C25.695 27.2072 26.1458 28.1675 26.7253 28.8717C26.7897 28.9357 26.8541 28.9997 26.9828 29.2558C27.0472 28.9997 27.1116 28.9357 27.3048 28.8077L28.1419 27.9754ZM32.778 15.6202C32.778 15.5561 32.778 15.3641 32.8424 15.172C32.7136 15.2361 32.5848 15.3001 32.456 15.3001C30.7175 15.6202 29.2365 16.3243 27.9487 17.3486L27.5623 17.6687L27.8199 17.6047C28.0775 17.6047 28.7858 18.1808 28.9789 18.3089V18.4369L28.7214 18.5009V18.5649C28.9789 18.821 28.9789 18.821 29.1077 18.821C29.1077 18.757 29.1721 18.5009 29.3653 18.5009C29.3653 18.5009 29.4297 18.5009 29.816 18.821H30.2024L30.4599 18.949C30.7175 18.821 31.2326 18.629 31.297 18.2449C31.3614 17.6687 31.3614 17.6047 31.7477 17.3486C31.7477 17.4767 31.8121 17.7327 32.0053 17.7327C32.0697 17.7327 32.3273 17.6687 32.456 17.6687C32.5848 17.6687 32.7136 17.7327 32.778 17.7327C32.7136 17.6687 32.7136 17.4767 32.7136 17.4126L32.778 15.6202ZM28.1419 29.7679C28.0131 29.896 27.8199 30.024 27.7555 30.024C27.8843 30.088 28.0131 30.152 28.0775 30.2801C29.1721 31.2403 30.6531 31.8805 32.1985 32.0725C32.2629 31.6884 32.3273 30.7922 32.6492 30.7922C33.2287 30.7922 33.2931 30.7922 33.2931 30.5361C33.2931 30.4721 32.9068 30.088 32.9068 29.96C32.9068 29.7039 32.9712 29.6399 33.0356 29.5759C32.9712 29.5119 32.9712 29.2558 32.9712 29.1278C32.9712 28.9997 33.0356 28.8077 33.0999 28.7437C32.9712 28.8077 32.778 28.8717 32.6492 28.8717C31.8765 28.8077 31.1682 28.4876 30.5243 28.0395C30.3955 27.9754 30.2024 27.7834 30.138 27.5913C30.138 27.7194 30.0092 27.9754 29.816 28.1675L28.1419 29.7679ZM29.3653 26.7591H29.2365L29.1721 26.6951H29.1077C28.9789 27.0152 28.8502 27.1432 28.3994 27.7194L29.3653 26.7591Z" fill="#009EDB"/>
<path d="M34.1258 9.0264C34.1258 9.15444 34.1258 9.4105 34.0615 9.60256C34.1902 9.53854 34.3834 9.53854 34.5122 9.53854C37.2166 9.66657 39.6634 10.6268 41.8527 12.2913C41.7239 11.9712 41.7239 11.9072 41.5952 11.8432L41.6595 11.7151C41.402 11.6511 41.3376 11.6511 41.2732 11.331C41.3376 11.331 41.402 11.267 41.402 11.203C41.08 10.6268 41.0156 10.5628 40.9513 10.4348C41.0156 10.3708 41.08 10.3708 41.2088 10.3708C41.2732 10.3708 42.2391 11.5231 42.3035 11.6511C42.9474 11.6511 43.0118 11.7151 43.3981 13.1235C44.1064 14.0837 44.1708 14.1478 44.1064 14.4679C44.4927 14.5319 45.1366 15.172 45.1366 15.7482C45.1366 15.8762 45.2654 15.8762 45.3942 15.8762C45.3942 15.8762 45.8449 15.7482 46.0381 15.7482C46.2313 15.7482 46.2957 15.8762 46.2957 16.0043C46.2957 16.1323 46.0381 16.5804 46.0381 16.6444H46.4888C46.5532 16.9645 46.5532 17.0285 46.3601 17.2206C46.3601 17.2846 46.3601 17.4767 46.4245 17.4767C46.682 17.5407 46.7464 17.5407 46.8108 17.7327V20.7415C46.5532 21.0616 46.1025 22.1499 45.9737 22.3419C45.3942 22.1499 45.3942 22.1499 45.3942 22.47C45.3942 22.598 45.3942 22.598 45.523 22.726C45.3942 22.7901 45.201 22.8541 45.0723 22.9821H46.0381C46.2957 22.9821 46.4245 23.0461 46.4888 23.0461C46.4245 22.598 46.5532 22.0859 46.6176 21.7018C46.682 21.5737 46.682 21.4457 46.7464 21.3177V28.6796C46.2957 30.024 45.3298 31.5604 44.1064 32.9048C43.9776 33.0328 43.8488 33.1608 43.7201 33.2248C43.9776 33.3529 44.1064 33.5449 44.2996 33.673L45.1366 34.6332C45.201 34.1851 45.1366 33.993 45.4586 33.993C46.1025 33.993 46.1669 34.9533 46.2313 35.7855C46.2957 35.5295 46.4888 35.3374 46.682 35.0813V37.8981C46.3601 37.578 46.3601 37.514 46.2957 37.2579C46.2313 37.386 46.1669 37.514 45.9093 37.706C44.9435 38.5383 43.8488 39.4345 42.6898 40.0747C42.4322 40.9069 42.3035 41.0989 42.0459 41.0989C41.9815 41.355 41.7883 41.5471 41.5952 41.7391C41.4664 42.0592 41.2732 42.1232 41.0156 42.1872C40.9513 42.3153 40.5649 42.5073 40.3073 42.6353C40.1786 42.7634 39.9854 43.0835 39.5347 43.0835C38.5688 43.0835 38.762 42.6353 37.7317 41.9312C36.7659 42.1872 35.6068 42.3153 34.5122 42.3793C34.1902 42.3793 34.0615 42.3793 33.9971 42.3153C34.0615 42.4433 34.0615 42.6994 34.0615 42.8914V45.4521C34.0615 45.5801 34.0615 45.8362 33.9971 46.0283C34.1258 45.9642 34.4478 45.9642 34.7698 45.9642C39.0839 45.8362 43.2693 44.2358 46.8752 41.5471L46.8108 43.2755C42.9474 45.9002 38.3112 47.3726 33.2888 47.3726V32.5847C33.4175 32.6487 33.6107 32.6487 33.7395 32.5847C33.8683 32.5847 34.8985 32.3286 34.8985 32.3286C35.0273 32.7127 35.0273 32.7127 35.1561 32.7767C35.478 32.8407 35.9288 32.9048 36.122 32.9048C36.3151 32.9048 36.5083 32.3286 36.5727 32.2646C37.2166 32.1366 38.3756 31.6884 38.3756 30.8562C38.3756 30.5361 38.1181 30.5361 38.1181 30.5361C37.9893 30.6001 37.4098 30.9842 37.281 30.9842C37.2166 30.9842 36.7015 30.8562 36.7015 30.8562C36.7659 30.9842 36.7659 30.9842 36.7015 31.2403C36.4439 31.3683 36.4439 31.3683 36.3151 31.3683C36.0576 31.1123 35.9932 31.0483 35.8644 31.0483L35.8 31.3683C35.7356 31.3683 34.7054 30.8562 34.641 30.8562C34.1902 30.9842 34.1902 30.9842 33.9971 31.1123L33.2888 31.6884V27.7194C33.4175 27.7194 33.7395 27.6554 33.9327 27.6554C34.2546 27.6554 34.319 27.2072 34.5122 26.6311C34.5766 26.311 34.641 26.183 34.8341 26.183C35.1561 26.183 35.6712 26.311 35.8 26.247C36.0576 26.119 36.122 25.4788 36.122 25.1587C36.122 25.0947 35.8644 24.9026 35.8644 24.7746C35.8644 24.1984 35.9288 23.8143 35.7356 23.6223C35.6712 23.4943 35.2849 23.6223 35.2849 23.3662C35.2849 23.2382 35.3493 23.0461 35.5424 22.9181C35.5424 22.9181 35.6068 22.8541 35.6068 22.662C35.6068 22.534 35.5424 22.0859 35.5424 21.9578C35.2849 21.8938 35.2205 21.9578 35.0917 21.8938C35.0273 21.7658 34.9629 21.5097 34.7698 21.3177C34.641 21.3177 34.4478 21.2537 34.4478 20.9976C33.9971 21.0616 33.8039 20.8055 33.4819 20.8055C33.2244 20.8055 33.0956 20.0373 33.4175 20.0373C33.8039 20.0373 34.0615 20.1654 34.0615 19.9733C34.0615 19.8453 33.6751 19.6532 33.3532 19.6532V0C38.3756 0 43.0118 1.47239 46.8752 4.09709V5.76153C43.4625 3.26487 39.2127 1.53641 34.641 1.28034C34.5122 1.28034 34.2546 1.28034 34.1258 1.21632C34.1902 1.34436 34.1902 1.53641 34.1902 1.79248V4.28914C34.1902 4.35316 34.1902 4.60923 34.1258 4.73726C34.3834 4.48119 34.5122 4.35316 34.5766 4.41718C34.8341 4.54521 34.641 4.80128 34.5122 5.05735C34.5766 5.05735 34.641 4.99333 34.8985 4.99333C37.4098 5.12136 40.0498 5.88957 42.2391 7.04187C42.6898 6.97786 43.0118 6.78581 43.3981 6.78581C43.5269 6.78581 44.2352 7.04187 44.4283 6.91384C44.8147 6.91384 45.201 7.93811 45.8449 8.19418C46.1025 8.32222 45.9737 9.09042 46.4245 9.21845C46.5532 9.21845 46.682 9.34649 46.8752 9.60256V14.852C46.6176 14.5959 46.2313 14.4038 46.1669 14.2758C46.0381 14.2118 45.9093 14.0197 45.9093 13.6996L44.8147 13.3155C44.6859 13.0595 44.5571 11.9712 44.4927 11.8432C44.4283 11.5231 44.042 11.139 43.8488 11.139C43.6557 11.139 43.2049 11.203 43.1405 11.203C42.8186 10.8189 42.4966 10.2427 42.561 9.85862C42.3035 9.53854 42.3035 9.47452 42.1103 8.77033C42.0459 8.70632 41.7239 8.32222 41.4664 8.06615C39.4703 6.97786 36.959 6.33769 34.5766 6.08162C34.319 6.08162 34.1902 6.08162 34.0615 6.0176C34.1258 6.27367 34.1258 6.4017 34.1258 6.65777V9.0264ZM46.8108 54.1584C44.4283 54.0944 43.3337 53.5182 40.1142 51.5337C38.3112 50.3814 37.3454 49.6772 35.8 49.6772C35.4137 49.6772 35.0917 49.7412 34.7698 49.8053C36.8303 50.9576 39.7922 52.43 42.3678 55.1187L41.0156 56.271C38.762 53.5182 35.478 50.9576 33.3532 50.2534V49.4852C34.0615 49.3571 36.122 48.781 37.4742 48.781C38.8908 48.781 40.1786 49.3571 43.0761 50.3174C44.7503 50.9576 45.9093 51.3417 46.8752 51.6618C46.8108 51.7258 46.8108 54.1584 46.8108 54.1584ZM34.1258 40.7789C34.1258 41.0349 34.1258 41.163 34.0615 41.419C34.1902 41.355 34.5122 41.355 34.7698 41.355C35.1561 41.355 36.0576 41.291 37.1522 41.0349C36.3795 40.7789 35.478 40.2667 35.478 39.5625C35.478 39.3065 35.7356 39.1144 35.7356 38.8583C35.7356 38.6023 34.7698 38.6023 34.5766 38.5383C34.319 38.4102 34.1902 38.1542 33.9971 37.8981C33.9971 37.9621 34.0615 38.2182 34.1258 38.3462V40.7789ZM34.1258 13.6356C34.1258 13.7637 34.1258 14.0197 34.0615 14.2118C34.1902 14.1478 34.3834 14.1478 34.5122 14.1478C36.3151 14.4038 37.9893 15.044 39.4059 16.1323C39.4703 16.1963 39.6634 16.3884 39.7278 16.5804C39.8566 16.3243 39.9854 16.2603 40.1142 16.1323L41.7883 14.4679C41.8527 14.4038 42.0459 14.2118 42.1747 14.1478C42.0459 14.0837 41.7883 13.8917 41.7239 13.8277C39.921 12.2273 37.1522 11.139 34.641 10.9469C34.319 10.9469 34.1902 10.8829 34.1258 10.8829C34.1902 11.0109 34.1902 11.267 34.1902 11.4591L34.1258 13.6356ZM34.1258 18.0528C34.3834 18.0528 34.8341 18.0528 35.0917 18.1168C35.2205 17.9888 35.6712 17.4767 36.0576 17.3486C36.122 17.2846 36.3151 17.0926 36.3151 17.0926C36.5727 17.0926 36.6371 17.2206 36.6371 17.4767C36.6371 17.8608 36.3795 18.4369 35.9932 18.757C35.8644 18.821 34.8341 19.2051 34.9629 19.3972C35.0917 19.4612 35.2849 19.2691 35.6068 19.2691C35.8644 19.2691 36.3795 19.9093 36.5727 19.9093C36.8303 19.9093 36.8946 19.7813 36.959 19.7813C37.0234 19.3972 37.0234 19.3331 37.4098 19.0771C37.5385 18.949 38.3756 18.5009 38.5044 18.3729L38.9551 17.9248C38.9551 17.9248 38.5044 17.9248 38.5044 17.7967C38.5044 17.5407 38.6332 17.5407 38.762 17.4767C38.8264 17.4126 38.8908 17.4126 39.0839 17.3486C38.9551 17.3486 38.762 17.2846 38.6976 17.2206C37.6029 16.1963 36.1863 15.7482 34.5122 15.4921C34.3834 15.4921 34.2546 15.4281 34.1258 15.3641C34.1902 15.6202 34.1902 15.7482 34.1902 15.8122L34.1258 18.0528ZM35.9288 4.60923C35.2849 4.60923 34.8985 4.28914 34.7698 4.09709C34.8341 3.84102 34.8985 3.84102 35.2205 3.96906C35.478 3.90504 36.959 3.32889 37.0878 3.32889C37.4098 3.32889 38.3756 3.32889 38.8264 3.96906C38.762 4.09709 38.5044 4.54521 38.1181 4.54521C37.0878 4.54521 36.959 4.54521 36.0576 4.67324L35.9288 4.60923ZM36.959 30.088C37.0234 30.088 37.9249 29.7039 37.9249 29.3838C37.5385 29.3838 36.959 29.5119 36.959 30.088ZM39.3415 28.9997C39.4059 28.9997 39.6634 28.9357 39.6634 28.6796C39.6634 28.1035 39.1483 27.9114 38.8264 27.7194C38.8908 27.2713 38.5688 27.3993 38.44 27.4633C38.3112 27.5273 38.3112 28.2315 39.0195 28.4236C39.0195 28.7437 39.0839 28.9997 39.3415 28.9997ZM45.0079 27.5273C44.9435 27.6554 44.7503 27.8474 44.4283 27.8474C44.1708 27.8474 44.042 27.7834 43.7844 27.7194C43.72 28.0395 43.6557 28.2955 43.3981 28.2955C43.1405 28.2955 43.0761 28.0395 43.0761 27.9114H43.0118C43.0118 27.9754 42.4322 28.8717 42.0459 28.9997C41.6596 29.0637 41.6595 29.1278 41.2732 29.6399C40.8225 29.7039 40.5649 29.7679 40.5649 29.96C40.5649 30.088 40.6937 30.088 40.8225 30.088C40.8225 30.088 41.5952 29.8319 41.5952 29.7679C41.7239 29.3838 41.7239 29.3838 42.0459 29.3198C42.3678 29.1918 42.7542 29.2558 42.7542 29.7039C42.7542 30.2801 42.4966 31.1123 42.3678 31.4964C42.3678 31.6244 42.0459 32.2006 42.0459 32.3286C41.7883 32.3926 41.6595 32.4566 41.5952 32.4566C41.4664 32.4566 39.1483 31.7525 38.6976 31.7525C38.6332 31.7525 38.3756 31.7525 38.3756 32.0085C38.3756 32.1366 39.1483 32.3286 39.4703 32.3926C39.599 32.3926 40.5649 32.9688 40.8225 32.9688C40.8225 32.9688 42.2391 32.9048 42.3035 32.7127C42.3678 32.5847 42.7542 31.4324 43.0118 31.4324C43.0761 31.4324 43.1405 31.8165 43.2693 32.2006C44.4283 30.8562 45.3942 29.1918 45.9737 27.5273H45.0079ZM39.4059 18.3729C39.6634 18.629 39.6634 18.629 39.7922 18.757L40.1142 17.9888C40.1142 17.8608 40.4361 17.7327 40.5005 17.7327C40.7581 17.7327 41.2088 17.8608 41.4664 17.8608C41.7883 17.7327 42.883 17.8608 43.2049 18.1168L43.8488 19.1411C43.8488 19.2051 43.8488 19.2691 43.7844 19.4612C43.8488 19.5892 43.8488 19.7172 43.9132 19.7813C44.2352 19.5252 44.364 19.3972 44.6859 19.3972C45.0079 19.3972 45.1366 19.5252 45.1366 19.6532C45.523 20.0373 45.5874 20.0373 45.7805 20.1014C45.7805 20.3574 45.7805 20.3574 45.4586 20.5495C45.4586 20.6775 45.1366 21.3177 45.1366 21.5097L45.201 21.5737C45.8449 21.6378 46.2313 20.5495 46.2313 20.5495C46.2313 20.4214 45.8449 19.1411 45.6518 18.821C45.3942 18.5649 44.364 17.9248 44.2996 17.7327C44.364 17.6047 44.5571 17.1566 44.5571 16.9645C44.5571 16.7084 43.2693 15.2361 43.1405 15.108C43.0761 15.044 43.0118 14.852 42.883 14.7239C42.883 14.852 42.7542 15.044 42.561 15.172L39.4059 18.3729ZM46.8108 48.2048C46.4245 48.2688 45.9737 48.5249 45.4586 48.653V48.717C46.1025 48.653 46.6176 48.4609 46.8108 48.4609V50.1253C45.8449 49.8693 44.1064 49.4852 41.3376 48.781C43.3337 48.3329 44.6215 48.0128 46.1669 46.6684C46.4245 46.5404 46.5532 46.2843 46.8108 46.0923V48.2048ZM43.3337 34.3772C43.2693 34.3131 43.0761 34.1211 43.0761 33.929C42.9474 34.3131 42.6898 34.8893 42.6898 34.9533C42.6898 35.0813 42.7542 35.2734 42.9474 35.3374C43.2693 35.5935 43.5913 35.6575 43.7201 35.7215C43.8488 35.8495 44.1064 35.9776 44.1064 36.1056C44.1064 36.2336 44.042 36.4257 43.9776 36.5537C43.7201 37.0018 43.3337 37.1939 43.3337 37.386C43.3337 37.514 43.5913 37.514 43.6557 37.642C43.7201 37.7701 43.6557 38.0261 43.5913 38.2182C44.364 37.642 44.7503 37.2579 45.1366 36.8738C45.2654 36.7458 45.3942 36.5537 45.5874 36.4897C45.1366 36.4897 45.0079 36.4257 45.0079 36.1056L43.3337 34.3772ZM44.2996 6.08162C44.2996 6.08162 44.364 6.08162 44.5571 6.14564C44.8147 6.08162 45.0079 6.08162 45.2654 6.27367C45.3942 6.4017 45.3942 6.59376 45.3942 6.72179C45.3942 6.84982 45.4586 6.78581 45.4586 6.97786C45.4586 7.10589 45.3298 7.10589 45.201 7.10589C44.9435 7.10589 44.8791 6.84982 44.6215 6.65777C44.2996 6.4017 43.9776 6.33769 43.9776 6.20965C43.9776 6.08162 44.2352 6.08162 44.2996 6.08162ZM44.6215 24.1984C45.0723 24.6466 45.0723 24.7746 45.201 25.2867C45.8449 25.9269 45.9093 25.9269 46.2313 26.6311C46.3601 25.9269 46.4888 25.4788 46.4888 24.7746C46.4888 24.3905 46.5532 24.1984 46.5532 24.1344C46.3601 24.1984 46.1669 24.1984 46.1025 24.1984H44.6215Z" fill="#009EDB"/>
<path d="M46.8144 9.53872C46.8788 9.28265 46.8788 9.28265 47.072 9.15461L48.4886 7.74624C48.6173 7.61821 48.8749 7.42616 49.0681 7.42616C48.8105 7.36214 48.6817 7.17009 48.4886 7.04205C47.909 6.59393 47.3939 6.14581 46.8144 5.76171V4.09727C53.0603 8.32239 57.2457 15.5563 57.2457 23.6865C57.2457 31.8166 53.0603 39.0506 46.8144 43.2757L46.8788 41.5472C47.3295 41.2272 47.9734 40.715 48.5529 40.2029C48.6817 40.0748 48.8749 39.9468 49.0037 39.8828C48.8749 39.8188 48.6817 39.7548 48.5529 39.5627L46.8144 37.8342V35.0175C49.3256 32.2007 50.9354 28.4237 51.0642 24.5187C51.0642 24.3907 51.0642 24.1986 51.1286 24.0706C50.9998 24.0706 50.871 24.1346 50.6778 24.1346H48.1666C47.909 24.1346 47.8446 24.1346 47.5871 24.0706C47.6515 24.3267 47.6515 24.4547 47.6515 24.7108C47.6515 25.0949 47.5871 25.799 47.3939 26.5032C47.3939 26.5032 47.5227 26.4392 47.6515 26.4392C47.909 26.6953 48.0378 26.8233 48.0378 27.0794C48.0378 27.1434 47.9734 27.4635 47.3939 27.3355C47.2651 27.4635 47.2651 27.4635 47.1363 27.4635C47.072 27.7196 46.8788 28.1037 46.75 28.6158V21.3179C46.8144 21.1898 47.072 20.6137 47.1363 20.5496C47.2007 20.4856 47.2651 20.4856 47.4583 20.4856C47.5227 20.7417 47.3295 21.6379 47.3295 21.766C47.5871 22.0861 47.6515 22.5982 47.5871 23.1743C47.8446 23.1103 47.9734 23.0463 48.1666 23.0463H50.6134C50.7422 23.0463 50.9354 23.0463 51.193 23.1103C51.1286 22.8543 51.1286 22.7262 51.1286 22.4702C50.9998 20.4216 50.4847 18.5651 49.712 16.8367C49.5832 16.9007 49.3256 16.9647 49.2612 16.9647C49.1325 16.9647 48.8749 16.5166 48.8105 16.5166C47.8446 15.1722 47.7159 15.1722 47.3295 15.1722C47.2651 15.1082 47.072 15.1082 46.9432 14.9161L46.8144 9.53872ZM46.8144 17.4768C46.8144 17.4128 46.8788 17.4768 46.8144 17.4768C46.9432 17.7969 47.2007 18.181 47.2007 18.5011L46.9432 19.2053C46.9432 19.2053 47.2651 19.5894 47.0076 19.9735C47.0076 20.0375 46.9432 20.1015 46.75 20.4216L46.8144 17.4768ZM46.8144 46.1565C48.6173 44.492 50.6134 42.6355 52.5452 40.9711L52.6095 41.0351C50.7422 44.1719 50.2271 45.8364 48.8105 46.9887C48.3598 47.4368 47.6515 47.7569 46.75 48.141L46.8144 46.1565ZM46.8144 48.5251C48.6173 48.269 49.4544 48.205 50.9354 48.077C54.9276 47.6289 56.7949 47.8209 59.6281 45.1962L59.6925 45.2602C58.5335 47.3088 55.5715 50.5736 49.9051 50.5736C49.0681 50.5736 48.3598 50.5096 46.8144 50.1895V48.5251ZM46.8144 51.7259C47.909 51.982 48.6173 52.1101 49.5832 52.1101C51.0642 52.1101 52.03 51.7259 54.2193 50.7017V50.7657C52.0944 53.1343 49.3256 54.1586 47.1363 54.1586H46.8144V51.7259ZM55.4427 22.9183C55.7003 22.9183 55.8291 22.9183 56.0866 22.9823C56.0223 22.8543 55.9579 22.5982 55.9579 22.3421C55.7003 16.9647 53.4466 12.1634 49.9695 8.51444C49.8408 8.38641 49.712 8.25838 49.6476 8.06633C49.6476 8.19436 49.5188 8.38641 49.3256 8.51444L47.5227 10.3069C47.3939 10.435 47.2007 10.563 47.1363 10.563C47.2651 10.627 47.3939 10.691 47.5227 10.8831C50.2915 14.1479 52.0944 17.989 52.352 22.4061C52.352 22.5342 52.352 22.7262 52.2876 23.0463C52.6095 22.9823 52.7383 22.9823 52.9315 22.9823L55.4427 22.9183ZM52.9315 24.1986C52.6739 24.1986 52.5452 24.1986 52.2876 24.1346C52.352 24.3907 52.352 24.4547 52.352 24.5827C52.2232 28.9999 50.4847 33.161 47.5227 36.2978C47.4583 36.3619 47.2651 36.5539 47.1363 36.6179C47.2651 36.6819 47.3939 36.746 47.5227 36.938L49.39 38.7945C49.5188 38.9225 49.6476 39.0506 49.712 39.2426C49.7764 38.9866 49.9695 38.8585 50.1627 38.6025C53.5754 34.8895 55.7003 29.8961 55.8935 24.5827C55.8935 24.4547 55.8935 24.3267 55.9579 24.1346C55.7003 24.1986 55.5715 24.1986 55.3783 24.1986H52.9315ZM57.5032 34.0572C57.1169 35.0815 56.4086 38.3464 56.0866 40.3309C55.6359 42.7636 54.5413 43.9159 52.7383 45.5163L52.8027 45.5803C53.511 45.3242 55.5715 43.4677 57.5032 42.5075C61.4955 40.523 63.556 39.3707 64.715 36.746L64.7794 36.81C63.6847 41.9954 59.113 45.2602 54.9276 46.1565L49.9695 47.2448C51.6437 45.7724 52.0944 44.364 54.0905 39.4987C54.7988 37.6422 55.2496 36.81 57.3745 33.9292L57.5032 34.0572ZM50.9354 2.17676C52.8027 3.8412 57.1169 2.88095 59.1774 10.8831C54.9276 8.19436 53.6398 4.48137 50.9354 2.17676ZM57.5676 5.37761C60.4008 6.0818 62.2681 9.0906 62.2681 12.2915V17.7969C61.2379 16.0044 59.4994 14.9161 57.2457 12.9316C55.7003 11.5232 55.4427 11.2032 54.2193 7.42616H54.2837C55.7003 10.8191 59.113 10.563 61.2379 14.7881V14.7241C59.2418 9.41068 59.9501 7.42616 57.5032 5.44163L57.5676 5.37761ZM59.6925 27.3995C59.6925 30.9204 60.4652 32.2007 60.4652 34.3773C60.4652 35.5296 59.6925 37.7062 59.0486 38.8585L59.113 38.9225C62.6545 33.161 66.196 32.3288 66.8399 27.9116C66.9043 28.3597 66.9687 28.8719 66.9687 29.384C66.9687 32.969 64.1999 36.938 62.3325 38.0903L56.4086 41.9313C57.5676 39.8828 57.6964 38.3464 58.1471 34.3773C58.4691 30.9204 58.5979 29.512 59.5637 27.3355C59.6281 27.3995 59.6925 27.3995 59.6925 27.3995ZM63.1696 22.022C63.1052 21.2538 62.9121 20.5496 62.9121 19.2693C62.9121 17.6689 63.2984 15.7484 63.2984 12.4195C63.2984 11.3952 62.6545 10.3709 62.4613 9.60273H62.5257C64.6506 12.4195 65.3589 14.7881 65.3589 17.2208C65.3589 19.9735 63.9423 22.5342 63.234 25.9271H63.1696C62.9121 24.0706 62.5257 23.4304 58.9842 18.5011C57.8896 16.9007 57.1813 14.404 56.9881 13.5078H57.0525C57.632 14.532 57.8252 14.8521 60.2076 16.9007C62.3325 18.7572 62.5901 20.1655 63.0408 22.0861L63.1696 22.022ZM66.0672 18.245C66.3248 19.1413 66.9043 21.3819 66.9043 22.7902C66.9043 28.9999 64.0711 30.0242 61.4955 34.3133H61.4311C61.4955 33.4811 61.5598 32.5849 61.5598 31.9447C61.5598 30.2162 58.8554 23.5584 59.113 19.8455H59.1774C59.8213 22.5342 62.7833 24.9668 62.7833 28.8078C62.7833 29.448 62.4613 30.9204 62.4613 31.1125H62.5257C63.3628 26.5672 66.0028 22.6622 66.0028 20.6777C66.0028 19.6534 65.9384 19.2053 65.9384 18.245C66.0028 18.245 66.0672 18.245 66.0672 18.245Z" fill="#009EDB"/>
</svg>
